<svg xmlns="http://www.w3.org/2000/svg" viewBox="0 0 1454.36 449"><defs><style>.cls-1{isolation:isolate;}.cls-10,.cls-2{fill:none;}.cls-3{fill:#fff;}.cls-4,.cls-5{fill:#cae1dd;}.cls-4{mix-blend-mode:multiply;}.cls-6{fill:#eff5f5;}.cls-7{fill:#4d5b5b;}.cls-8{fill:#e19a48;}.cls-9{fill:#131c1d;}.cls-10{stroke:#eff5f5;stroke-linecap:round;stroke-linejoin:round;stroke-width:0;}.cls-11{fill:#c7d9d7;}</style></defs><g class="cls-1"><g id="Layer_2" data-name="Layer 2"><g id="Layer_1-2" data-name="Layer 1"><path class="cls-2" d="M758.66,310.9c-.45-.37-.91-.74-1.39-1.07C757.75,310.16,758.21,310.53,758.66,310.9Z"/><path class="cls-2" d="M721.44,362.61c.18-.54.37-1.08.55-1.61C721.81,361.53,721.62,362.07,721.44,362.61Z"/><path class="cls-2" d="M809.27,264.47l.15-.92Z"/><path class="cls-2" d="M760.15,312.25c-.42-.41-.86-.81-1.3-1.19C759.29,311.44,759.73,311.84,760.15,312.25Z"/><path class="cls-2" d="M614.44,237.6c.15,3.07.57,6.12.68,9.2C615,243.72,614.59,240.67,614.44,237.6Z"/><path class="cls-2" d="M809.1,265.83c0-.37.08-.74.13-1.11C809.18,265.09,809.13,265.46,809.1,265.83Z"/><path class="cls-2" d="M757.12,309.73a16.56,16.56,0,0,0-1.45-.89A16.56,16.56,0,0,1,757.12,309.73Z"/><path class="cls-2" d="M730.36,340.85A93,93,0,0,1,736,331,93,93,0,0,0,730.36,340.85Z"/><path class="cls-2" d="M738.57,327.23c.7-1,1.41-2,2.12-2.92C740,325.27,739.27,326.25,738.57,327.23Z"/><path class="cls-2" d="M748.62,314.75l.16-.13Z"/><path class="cls-2" d="M738.3,346.14l-.11-.19.11.19Z"/><path class="cls-2" d="M751.58,313.59a1,1,0,0,0-.76-.06A1,1,0,0,1,751.58,313.59Z"/><path class="cls-2" d="M793.6,340.57Z"/><path class="cls-2" d="M754.76,284.66a.25.25,0,0,0,0,.07h0A.25.25,0,0,1,754.76,284.66Z"/><path class="cls-2" d="M789.89,340.22a.62.62,0,0,0,.22-.26A.62.62,0,0,1,789.89,340.22Z"/><path class="cls-2" d="M975.27,254.55q-2.44,3.58-5.4,7.1Q972.83,258.13,975.27,254.55Z"/><path class="cls-2" d="M969.87,261.65c-1.31,1.56-2.7,3.12-4.16,4.66C967.17,264.77,968.56,263.21,969.87,261.65Z"/><path class="cls-2" d="M703.53,357.7a1.1,1.1,0,0,1,.3-.46A1.1,1.1,0,0,0,703.53,357.7Z"/><polygon class="cls-2" points="597.37 300.27 597.37 300.27 597.37 300.27 597.37 300.27"/><path class="cls-2" d="M772.3,329.23c-.18-.43-.39-.85-.59-1.27.2.42.41.84.59,1.27,2.78,6.58,5.3,13.26,6.55,20.34l0,.09h0a.24.24,0,0,1,0-.09C777.6,342.49,775.08,335.81,772.3,329.23Z"/><path class="cls-2" d="M785.17,233.51c.47-.15.94-.33,1.4-.5h0C786.11,233.18,785.64,233.36,785.17,233.51Z"/><path class="cls-2" d="M810.34,257.56a54.83,54.83,0,0,1-.92,6,54.83,54.83,0,0,0,.92-6Z"/><path class="cls-2" d="M760.29,312.38c.41.4.81.8,1.2,1.21C761.1,313.18,760.7,312.78,760.29,312.38Z"/><path class="cls-2" d="M766.31,319.15l.25.34c-.09-.11-.16-.23-.25-.34Z"/><path class="cls-2" d="M575.39,325l-.08.06Z"/><path class="cls-2" d="M570.62,328.6l-.16.11Z"/><path class="cls-2" d="M563.11,333.36l-.35.2Z"/><path class="cls-2" d="M568.17,330.26l-.23.15Z"/><path class="cls-2" d="M565.66,331.85l-.29.17Z"/><path class="cls-2" d="M560.52,334.79l-.43.22Z"/><path class="cls-2" d="M557.88,336.14l-.5.23Z"/><path class="cls-2" d="M870.39,365.55a32.58,32.58,0,0,1-3.27,2.47A32.58,32.58,0,0,0,870.39,365.55Z"/><path class="cls-2" d="M579.93,321.17Z"/><path class="cls-2" d="M573,326.85l-.11.09Z"/><path class="cls-2" d="M555.2,337.4l-.58.25Z"/><path class="cls-2" d="M577.69,323.14l0,0Z"/><path class="cls-2" d="M546.94,340.68l-.84.27Z"/><path class="cls-2" d="M526.61,345.15l-1.66.14Z"/><path class="cls-2" d="M529.58,344.8l-1.48.17Z"/><path class="cls-2" d="M535.48,343.8l-1.26.23Z"/><path class="cls-2" d="M532.54,344.34c-.45.08-.9.14-1.35.21C531.64,344.48,532.09,344.42,532.54,344.34Z"/><path class="cls-2" d="M520.6,345.56c-1,0-2,.05-3,.05C518.58,345.61,519.59,345.59,520.6,345.56Z"/><path class="cls-2" d="M523.61,345.4c-.64.05-1.29.07-1.93.1C522.32,345.47,523,345.45,523.61,345.4Z"/><path class="cls-2" d="M541.27,342.42l-1,.27Z"/><path class="cls-2" d="M610.42,233.36a.62.62,0,0,1,.24.08.62.62,0,0,0-.24-.08Z"/><path class="cls-2" d="M549.73,339.67l-.75.27Z"/><path class="cls-2" d="M538.38,343.16l-1.14.25Z"/><path class="cls-2" d="M544.12,341.59l-1,.28Z"/><path class="cls-2" d="M552.48,338.58l-.66.27Z"/><path class="cls-2" d="M943.13,284.81q5.4-3.53,10.09-7.21c1.87-1.47,3.65-3,5.36-4.45-1.71,1.5-3.49,3-5.36,4.45Q948.53,281.27,943.13,284.81Z"/><path class="cls-2" d="M1143.15,136.46c-.52-.89-1-1.81-1.45-2.74C1142.15,134.65,1142.63,135.57,1143.15,136.46Z"/><path class="cls-2" d="M995.49,333.42c-.59-.88-1.14-1.78-1.64-2.71C994.35,331.64,994.9,332.54,995.49,333.42Z"/><path class="cls-2" d="M993.85,330.71a31.61,31.61,0,0,1-2-4.35A31.61,31.61,0,0,0,993.85,330.71Z"/><path class="cls-2" d="M1141.7,133.72c-.46-.93-.88-1.89-1.26-2.85C1140.82,131.83,1141.24,132.79,1141.7,133.72Z"/><path class="cls-2" d="M1137.63,120.1c-.14-1.07-.24-2.16-.31-3.26C1137.39,117.94,1137.49,119,1137.63,120.1Z"/><path class="cls-2" d="M1335.59,61.84a45.34,45.34,0,0,1,5.9,1.32A45.34,45.34,0,0,0,1335.59,61.84Z"/><path class="cls-2" d="M1139.88,129.4c-.36-1-.68-2-1-3C1139.2,127.41,1139.52,128.41,1139.88,129.4Z"/><path class="cls-2" d="M1138.92,126.39a43.55,43.55,0,0,1-1.29-6.29A43.55,43.55,0,0,0,1138.92,126.39Z"/><path class="cls-2" d="M1410.63,339.27a45.38,45.38,0,0,1-2.84,5.82A45.38,45.38,0,0,0,1410.63,339.27Z"/><path class="cls-2" d="M1413.41,328.68a42.16,42.16,0,0,1-.8,4.35A42.16,42.16,0,0,0,1413.41,328.68Z"/><path class="cls-2" d="M1399.81,355.15a44.59,44.59,0,0,1-5,4.08A44.59,44.59,0,0,0,1399.81,355.15Z"/><path class="cls-2" d="M1127.57,346.68a32.25,32.25,0,0,1-4.47-.62A32.25,32.25,0,0,0,1127.57,346.68Z"/><path class="cls-2" d="M961.07,270.89c1.63-1.51,3.17-3,4.64-4.58C964.24,267.85,962.7,269.38,961.07,270.89Z"/><path class="cls-2" d="M1163.65,370.71a46,46,0,0,1-4.35-3.68A46,46,0,0,0,1163.65,370.71Z"/><path class="cls-2" d="M1147.61,348a45.09,45.09,0,0,1-1.38-5.73A45.09,45.09,0,0,0,1147.61,348Z"/><path class="cls-2" d="M1037.29,344.4a32.33,32.33,0,0,1-7,2.55A32.33,32.33,0,0,0,1037.29,344.4Z"/><path class="cls-2" d="M1150.54,355.29c.48.93,1,1.85,1.54,2.75a44.35,44.35,0,0,0,5.22,6.94,44.35,44.35,0,0,1-5.22-6.94C1151.53,357.14,1151,356.22,1150.54,355.29Z"/><path class="cls-2" d="M1149.2,352.45l-.21-.52.21.52c.16.36.33.71.5,1.07s.27.59.41.88c-.14-.29-.28-.59-.41-.88S1149.36,352.81,1149.2,352.45Z"/><path class="cls-2" d="M1051.22,331.06a33.79,33.79,0,0,0,2.08-4.48c.33-.89.63-1.81.89-2.73-.26.92-.56,1.84-.89,2.73A33.79,33.79,0,0,1,1051.22,331.06Z"/><path class="cls-2" d="M989.89,142.39c0-.43.12-.84.14-1.27,0,.43-.14.84-.14,1.27v172.7a32.81,32.81,0,0,0,2,11.27,32.81,32.81,0,0,1-2-11.27Z"/><path class="cls-2" d="M865.36,369.1a32.69,32.69,0,0,1-3.71,1.82A32.69,32.69,0,0,0,865.36,369.1Z"/><path class="cls-2" d="M1413.79,324.2c0-1.51,0-3-.08-4.57C1413.81,321.17,1413.84,322.69,1413.79,324.2Z"/><path class="cls-2" d="M1143.15,136.46a41.51,41.51,0,0,0,2.5,3.89h0A41.51,41.51,0,0,1,1143.15,136.46Z"/><path class="cls-2" d="M1370.72,277.94a44.84,44.84,0,0,0-4.62.15l-93,6.3,93-6.3A44.84,44.84,0,0,1,1370.72,277.94Z"/><path class="cls-2" d="M993.76,127.14c-.26.47-.51,1-.73,1.44s-.41.93-.6,1.4c.19-.47.38-.94.6-1.4S993.5,127.61,993.76,127.14Z"/><polygon class="cls-2" points="1326.43 61.31 1190.66 69.02 1179.43 69.66 1190.66 69.02 1326.43 61.31"/><path class="cls-2" d="M1372.08,94.15a46.19,46.19,0,0,1,1.2,5.91A46.19,46.19,0,0,0,1372.08,94.15Z"/><path class="cls-2" d="M1025.35,109.17q-3.3.31-6.64.72a5,5,0,0,0-.67.14,5,5,0,0,1,.67-.14Q1022.06,109.49,1025.35,109.17Z"/><path class="cls-2" d="M1048.93,108c-1.42,0-2.85,0-4.29,0q-6.27.12-12.76.57,6.49-.45,12.76-.57C1046.08,108,1047.51,108,1048.93,108Z"/><path class="cls-2" d="M1349.83,66.52a44.68,44.68,0,0,1,9.77,6.91A44.68,44.68,0,0,0,1349.83,66.52Z"/><path class="cls-2" d="M876.4,133.79q5.51,0,10.74.25Q881.91,133.77,876.4,133.79Z"/><path class="cls-2" d="M849.18,373.39a33.43,33.43,0,0,0,6.45-.63,33.43,33.43,0,0,1-6.45.63Z"/><path class="cls-2" d="M859.7,371.66a32.52,32.52,0,0,1-4.07,1.1A32.52,32.52,0,0,0,859.7,371.66Z"/><path class="cls-3" d="M347,57a49.92,49.92,0,0,0-49.87-49.3h-.63L116,9.9c-11.87,1.7-48.28,9.76-49,44.62-.85,41.66,39.1,41.66,39.1,41.66l51.85.85,3.15,208.17c.26,17.59,11.08,33.73,27.72,39.45,14,4.83,32.69,2.59,54.09-21.46a49.91,49.91,0,0,0,.91-9.46V108.14l53.87-.65A49.85,49.85,0,0,0,347,57Z"/><path class="cls-3" d="M242.86,323.41a98,98,0,0,1-11.34,23.08A49.76,49.76,0,0,0,242.86,323.41Z"/><path class="cls-3" d="M417.28,305.4,386.37,282l-17.46-13.22a161.9,161.9,0,0,0,20.26-10.43c40-24.51,41.87-54.1,39.61-69.09-.17-1.12-.39-2.22-.62-3.31-8.15-38.67-54.37-61.9-117-60.36-7.28,2.6-38.22,15.47-36.72,46.24,1.38,28.18,1.08,117.46.92,150.64-.05,10.66,5.05,20.9,14.06,26.6,8.4,5.31,19.45,7.22,30.08-6.38L321,344a32.55,32.55,0,0,0,2.07-11.38V316.26l54.66,41.36a32.61,32.61,0,0,0,19.75,6.64,33,33,0,0,0,11-1.88,32.72,32.72,0,0,0,8.81-57ZM322.57,226l.51-10.34V191.2c18.09.69,30.47,4.31,37,7.58C358.84,210.65,322.57,226,322.57,226Z"/><path class="cls-3" d="M987.42,202.14c-2.77-15.23-11.24-30.07-25.37-42-2-1.7-4.15-3.35-6.4-4.93a100.22,100.22,0,0,0-13-7.72q-3.52-1.75-7.32-3.32-2.52-1-5.18-2-4-1.43-8.22-2.63-5.67-1.61-11.81-2.79-3.06-.58-6.26-1.07-8-1.19-16.7-1.65-5.24-.27-10.74-.25-7.33,0-15.15.6h0c-11.91,4.26-31.24,14.93-30.06,39.14,1.38,28.18,1.09,130.21.92,163.39-.05,10.66,5,20.9,14.07,26.6,8.39,5.31,19.44,7.23,30.07-6.38l.79.65a32.85,32.85,0,0,0,2.9-6,32.21,32.21,0,0,0,2-11.19V311.21a247.67,247.67,0,0,0,45.49-17.35,171.58,171.58,0,0,0,15.71-9.05q5.4-3.53,10.09-7.21c1.87-1.47,3.65-3,5.36-4.45.85-.75,1.68-1.5,2.49-2.26,1.63-1.51,3.17-3,4.64-4.58s2.85-3.1,4.16-4.66q3-3.52,5.4-7.1a81.6,81.6,0,0,0,4.42-7.2,74,74,0,0,0,6-14.53c.23-.81.45-1.61.66-2.42A66.17,66.17,0,0,0,987.42,202.14Zm-64.56,12.13c-.67,3.61-6.42,27.93-41.51,39.45L882,242.2V199.47c27.2,1.26,40.07,11,41,14.33C922.94,213.8,922.92,214,922.86,214.27Z"/><path class="cls-3" d="M1413.71,319.63A44.92,44.92,0,0,0,1397,287.48c-1.12-.89-2.28-1.73-3.48-2.51-.6-.39-1.21-.77-1.83-1.13-1.24-.72-2.51-1.39-3.82-2-.66-.3-1.32-.58-2-.85a43.27,43.27,0,0,0-15.13-3.06,44.84,44.84,0,0,0-4.62.15l-93,6.3,94.07-155.26a44.3,44.3,0,0,0,2.83-5.47,44.74,44.74,0,0,0,3.65-17.62,44.5,44.5,0,0,0-1.59-11.89,45.11,45.11,0,0,0-4.81-11.24,44,44,0,0,0-7.67-9.48,44.68,44.68,0,0,0-9.77-6.91,46,46,0,0,0-8.34-3.36,45.34,45.34,0,0,0-5.9-1.32,47.34,47.34,0,0,0-9.16-.53L1190.66,69c-2.22.9-37.66,15.79-36,45.43.43,7.65,1.93,13.3,4.68,18.28,6.37,11.54,21.19,17.94,34.35,18.88l53.07,3.8-73,150.73-3.32,7.36a46,46,0,0,0,37.46,64.76l1,.08,163.26-11.08a44.64,44.64,0,0,0,27.67-12.11,44.7,44.7,0,0,0,10.82-15.88,45.74,45.74,0,0,0,2-6.24,42.16,42.16,0,0,0,.8-4.35,43.87,43.87,0,0,0,.38-4.48C1413.84,322.69,1413.81,321.17,1413.71,319.63Z"/><path class="cls-3" d="M1153.07,312.41l8.37-15.62,1-2.32-3.18,5.26a32.62,32.62,0,0,0-9.68-11.83l-5.24-4-43.13-32.66c22.12-9.6,36.41-20.65,45.52-31.63,15.46-18.64,16-37.07,14.35-47.89A57.34,57.34,0,0,0,1151,147l-2.09-2.56a44.91,44.91,0,0,1-3-3.69l-.5-.61a76.09,76.09,0,0,0-12.4-10.6q-2.32-1.61-4.82-3.1a112.46,112.46,0,0,0-22.39-10.11c-1.09-.36-2.19-.71-3.31-1q-3.33-1-6.83-1.9a169.37,169.37,0,0,0-18.34-3.5c-2.56-.34-5.17-.64-7.81-.89-6.61-.62-13.48-.94-20.57-.93-1.42,0-2.85,0-4.29,0l.77,0s-40,11.9-38.25,46.75c1.37,28.17,1.08,117.46.92,150.64a31.14,31.14,0,0,0,14.06,26.6c8.39,5.31,19.44,7.22,30.07-6.38l1.09.89c.33-.89.63-1.81.89-2.73s.49-1.88.67-2.84c.09-.48.17-1,.23-1.45a28.8,28.8,0,0,0,.28-3c0-.5,0-1,0-1.51V298.75l54.66,41.36c.77.59,1.56,1.13,2.37,1.64a32.62,32.62,0,0,0,15.13,4.93c.75.05,1.5.08,2.25.08a32.73,32.73,0,0,0,14.5-3.42c.64-.32,1.28-.66,1.91-1a45.09,45.09,0,0,0,1.38,5.73c.35,1.13.74,2.25,1.18,3.36C1143.59,338.21,1146.34,325,1153.07,312.41ZM1091.8,181.7c-4,11.59-37.08,25.53-37.08,25.53l.51-10.34.16-.07V173.7c16.88.64,28.79,3.84,35.59,6.92l1.22-.56a5.55,5.55,0,0,1-.2,1.05l.36.17C1092.19,181.42,1092,181.56,1091.8,181.7Z"/><path class="cls-3" d="M188.81,344.65c-16.64-5.72-27.46-21.86-27.72-39.45L157.94,97l-51.85-.85s-39.95,0-39.1-41.66C67.7,19.66,104.11,11.6,116,9.9l-30,.36A49.87,49.87,0,0,0,86.54,110h.63l56.91-.68V313.73a49.85,49.85,0,0,0,87.44,32.76,98,98,0,0,0,11.34-23.08,1.43,1.43,0,0,0,0-.22C221.5,347.24,202.85,349.48,188.81,344.65Z"/><path class="cls-4" d="M188.81,344.65c-16.64-5.72-27.46-21.86-27.72-39.45L157.94,97l-51.85-.85s-39.95,0-39.1-41.66C67.7,19.66,104.11,11.6,116,9.9l-30,.36A49.87,49.87,0,0,0,86.54,110h.63l56.91-.68V313.73a49.85,49.85,0,0,0,87.44,32.76,98,98,0,0,0,11.34-23.08,1.43,1.43,0,0,0,0-.22C221.5,347.24,202.85,349.48,188.81,344.65Z"/><path class="cls-3" d="M289.38,349.07c-9-5.7-14.11-15.94-14.06-26.6.16-33.18.46-122.46-.92-150.64-1.5-30.77,29.44-43.64,36.72-46.24-8,.2-16.23.78-24.71,1.8-.47.06-.89.23-1.34.29a29.65,29.65,0,0,0-3.29.75c-1,.27-2,.56-3,.92s-2,.84-2.95,1.31-1.89,1-2.79,1.51a27.52,27.52,0,0,0-2.52,1.8,28.27,28.27,0,0,0-2.45,2c-.77.71-1.45,1.47-2.14,2.23s-1.39,1.59-2,2.43-1.13,1.71-1.66,2.61a29.47,29.47,0,0,0-1.53,2.82c-.43.92-.78,1.88-1.12,2.84s-.72,2.12-1,3.21a28.2,28.2,0,0,0-.52,2.94,29.64,29.64,0,0,0-.36,3.55c0,.43-.13.84-.13,1.27V332.6A32.74,32.74,0,0,0,321,344l-1.57-1.29C308.83,356.29,297.78,354.38,289.38,349.07Z"/><path class="cls-4" d="M289.38,349.07c-9-5.7-14.11-15.94-14.06-26.6.16-33.18.46-122.46-.92-150.64-1.5-30.77,29.44-43.64,36.72-46.24-8,.2-16.23.78-24.71,1.8-.47.06-.89.23-1.34.29a29.65,29.65,0,0,0-3.29.75c-1,.27-2,.56-3,.92s-2,.84-2.95,1.31-1.89,1-2.79,1.51a27.52,27.52,0,0,0-2.52,1.8,28.27,28.27,0,0,0-2.45,2c-.77.71-1.45,1.47-2.14,2.23s-1.39,1.59-2,2.43-1.13,1.71-1.66,2.61a29.47,29.47,0,0,0-1.53,2.82c-.43.92-.78,1.88-1.12,2.84s-.72,2.12-1,3.21a28.2,28.2,0,0,0-.52,2.94,29.64,29.64,0,0,0-.36,3.55c0,.43-.13.84-.13,1.27V332.6A32.74,32.74,0,0,0,321,344l-1.57-1.29C308.83,356.29,297.78,354.38,289.38,349.07Z"/><path class="cls-3" d="M1052.21,325.69c-10.63,13.6-21.68,11.69-30.07,6.38a31.14,31.14,0,0,1-14.06-26.6c.16-33.18.45-122.47-.92-150.64-1.7-34.85,38.25-46.75,38.25-46.75l-.77,0q-6.27.12-12.76.57-3.24.23-6.53.54t-6.64.72a5,5,0,0,0-.67.14,4.86,4.86,0,0,1-.66.15,29.14,29.14,0,0,0-3.29.75c-.51.13-1,.27-1.51.43s-1,.31-1.49.48-1,.41-1.49.63-1,.45-1.47.69c-1,.47-1.88,1-2.78,1.51-.44.27-.86.56-1.28.86s-.83.62-1.25.94l-1.25,1c-.41.33-.81.67-1.19,1-.77.7-1.45,1.47-2.14,2.23s-1.39,1.59-2,2.43a30.37,30.37,0,0,0-1.66,2.61c-.28.46-.55.92-.8,1.38s-.51,1-.73,1.44-.41.93-.6,1.4-.35,1-.52,1.44c-.37,1.06-.72,2.11-1,3.21-.11.48-.21,1-.3,1.46s-.16,1-.23,1.48a31.85,31.85,0,0,0-.35,3.55c0,.43-.14.84-.14,1.27v172.7a32.81,32.81,0,0,0,2,11.27,31.61,31.61,0,0,0,2,4.35c.5.93,1,1.83,1.64,2.71a32.94,32.94,0,0,0,8.85,8.84,30.8,30.8,0,0,0,2.7,1.64,32.77,32.77,0,0,0,30.25.5,33,33,0,0,0,13.93-13.34,33.79,33.79,0,0,0,2.08-4.48Z"/><path class="cls-4" d="M1052.21,325.69c-10.63,13.6-21.68,11.69-30.07,6.38a31.14,31.14,0,0,1-14.06-26.6c.16-33.18.45-122.47-.92-150.64-1.7-34.85,38.25-46.75,38.25-46.75l-.77,0q-6.27.12-12.76.57-3.24.23-6.53.54t-6.64.72a5,5,0,0,0-.67.14,4.86,4.86,0,0,1-.66.15,29.14,29.14,0,0,0-3.29.75c-.51.13-1,.27-1.51.43s-1,.31-1.49.48-1,.41-1.49.63-1,.45-1.47.69c-1,.47-1.88,1-2.78,1.51-.44.27-.86.56-1.28.86s-.83.62-1.25.94l-1.25,1c-.41.33-.81.67-1.19,1-.77.7-1.45,1.47-2.14,2.23s-1.39,1.59-2,2.43a30.37,30.37,0,0,0-1.66,2.61c-.28.46-.55.92-.8,1.38s-.51,1-.73,1.44-.41.93-.6,1.4-.35,1-.52,1.44c-.37,1.06-.72,2.11-1,3.21-.11.48-.21,1-.3,1.46s-.16,1-.23,1.48a31.85,31.85,0,0,0-.35,3.55c0,.43-.14.84-.14,1.27v172.7a32.81,32.81,0,0,0,2,11.27,31.61,31.61,0,0,0,2,4.35c.5.93,1,1.83,1.64,2.71a32.94,32.94,0,0,0,8.85,8.84,30.8,30.8,0,0,0,2.7,1.64,32.77,32.77,0,0,0,30.25.5,33,33,0,0,0,13.93-13.34,33.79,33.79,0,0,0,2.08-4.48Z"/><path class="cls-4" d="M850.94,135.35c-.29,0-.58-.06-.86-.1.28,0,.57.08.86.1Z"/><path class="cls-4" d="M853.54,135.08q2.61-.27,5.16-.48Q856.15,134.81,853.54,135.08Z"/><path class="cls-3" d="M846.18,363.52c-9-5.7-14.12-15.94-14.07-26.6.17-33.18.46-135.21-.92-163.39-1.18-24.21,18.15-34.88,30.06-39.14l-2.55.21q-2.55.21-5.16.48l-2.6.27h0c-.29,0-.58-.06-.86-.1a6.4,6.4,0,0,0-.88-.08,32.66,32.66,0,0,0-32.47,29.74c-.08.75-.19,1.49-.23,2.24,0,.27-.08.51-.08.78V261a.76.76,0,0,0,.31.28,20.31,20.31,0,0,1,1.46,2.11c.08.09.17.17.26.26a.13.13,0,0,0,0,.16.31.31,0,0,0,.16.33l.27.52a.3.3,0,0,0,.16.3c.79,1.4,1,3,1.8,4.41a.23.23,0,0,0,.12.3.08.08,0,0,0,0,.12c0,.2,0,.38.18.49a20.24,20.24,0,0,0,.92,3.35,3.15,3.15,0,0,0,.36,1.39c0,.18,0,.37.07.55a.44.44,0,0,0,.16.45,1,1,0,0,0,.11.61c0,.21.08.43.13.65l.06.22a.19.19,0,0,0,.08.15,29,29,0,0,0,.71,4.33,1.09,1.09,0,0,0,.18.88c0,.14,0,.27,0,.4,0,.29-.12.62.15.87a43.37,43.37,0,0,0,.69,5.55.44.44,0,0,0,0,.43c0,.14,0,.29,0,.43a.41.41,0,0,0,.14.52v.25c-.17.18-.2.36,0,.53,0,.27-.09.56,0,.84a.18.18,0,0,0,0,.19c-.09,1.27.06,2.52.09,3.79.07,2.6-.18,5.21-.25,7.81a28.21,28.21,0,0,0-.23,3.71,11.34,11.34,0,0,1-.58,3.27c-.41,1.86-.59,3.77-1,5.64s-.75,3.49-1.19,5.22a4.63,4.63,0,0,0-.07.52l0,.21a36,36,0,0,0-1.13,3.52.29.29,0,0,0-.14.33A7.38,7.38,0,0,0,820,329c0,.07-.05.14-.07.21s-.1.24-.16.36a.28.28,0,0,0-.15.31,8.38,8.38,0,0,0-.71,1.92.17.17,0,0,0-.09.18.91.91,0,0,0-.34.8,13.94,13.94,0,0,0-1.21,2.67c-.27.53-.54,1.06-.8,1.59v3.6a32.68,32.68,0,0,0,10.73,24.25c.78.7,1.59,1.37,2.43,2a33.18,33.18,0,0,0,8.34,4.52,32.4,32.4,0,0,0,11.26,2,33.43,33.43,0,0,0,6.45-.63,32.52,32.52,0,0,0,4.07-1.1c.66-.23,1.31-.47,1.95-.74a32.69,32.69,0,0,0,3.71-1.82c.6-.34,1.18-.7,1.76-1.08a32.58,32.58,0,0,0,3.27-2.47,33,33,0,0,0,6.65-7.76l-.79-.65C865.62,370.75,854.57,368.83,846.18,363.52Z"/><path class="cls-4" d="M846.18,363.52c-9-5.7-14.12-15.94-14.07-26.6.17-33.18.46-135.21-.92-163.39-1.18-24.21,18.15-34.88,30.06-39.14l-2.55.21q-2.55.21-5.16.48l-2.6.27h0c-.29,0-.58-.06-.86-.1a6.4,6.4,0,0,0-.88-.08,32.66,32.66,0,0,0-32.47,29.74c-.08.75-.19,1.49-.23,2.24,0,.27-.08.51-.08.78V261a.76.76,0,0,0,.31.28,20.31,20.31,0,0,1,1.46,2.11c.08.09.17.17.26.26a.13.13,0,0,0,0,.16.31.31,0,0,0,.16.33l.27.52a.3.3,0,0,0,.16.3c.79,1.4,1,3,1.8,4.41a.23.23,0,0,0,.12.3.08.08,0,0,0,0,.12c0,.2,0,.38.18.49a20.24,20.24,0,0,0,.92,3.35,3.15,3.15,0,0,0,.36,1.39c0,.18,0,.37.07.55a.44.44,0,0,0,.16.45,1,1,0,0,0,.11.61c0,.21.08.43.13.65l.06.22a.19.19,0,0,0,.08.15,29,29,0,0,0,.71,4.33,1.09,1.09,0,0,0,.18.88c0,.14,0,.27,0,.4,0,.29-.12.62.15.87a43.37,43.37,0,0,0,.69,5.55.44.44,0,0,0,0,.43c0,.14,0,.29,0,.43a.41.41,0,0,0,.14.52v.25c-.17.18-.2.36,0,.53,0,.27-.09.56,0,.84a.18.18,0,0,0,0,.19c-.09,1.27.06,2.52.09,3.79.07,2.6-.18,5.21-.25,7.81a28.21,28.21,0,0,0-.23,3.71,11.34,11.34,0,0,1-.58,3.27c-.41,1.86-.59,3.77-1,5.64s-.75,3.49-1.19,5.22a4.63,4.63,0,0,0-.07.52l0,.21a36,36,0,0,0-1.13,3.52.29.29,0,0,0-.14.33A7.38,7.38,0,0,0,820,329c0,.07-.05.14-.07.21s-.1.24-.16.36a.28.28,0,0,0-.15.31,8.38,8.38,0,0,0-.71,1.92.17.17,0,0,0-.09.18.91.91,0,0,0-.34.8,13.94,13.94,0,0,0-1.21,2.67c-.27.53-.54,1.06-.8,1.59v3.6a32.68,32.68,0,0,0,10.73,24.25c.78.7,1.59,1.37,2.43,2a33.18,33.18,0,0,0,8.34,4.52,32.4,32.4,0,0,0,11.26,2,33.43,33.43,0,0,0,6.45-.63,32.52,32.52,0,0,0,4.07-1.1c.66-.23,1.31-.47,1.95-.74a32.69,32.69,0,0,0,3.71-1.82c.6-.34,1.18-.7,1.76-1.08a32.58,32.58,0,0,0,3.27-2.47,33,33,0,0,0,6.65-7.76l-.79-.65C865.62,370.75,854.57,368.83,846.18,363.52Z"/><path class="cls-3" d="M596.78,297.42A54.62,54.62,0,0,1,595.7,288a74.86,74.86,0,0,0-.63-8c-.2-2-.08-4.05-.08-6.08a62.94,62.94,0,0,1,.81-8.55,87,87,0,0,1,5.53-20,35.54,35.54,0,0,1,5.44-9.92,6.43,6.43,0,0,1,1.88-1.72c.41-.22.76-.82,1.3-.51l.47.26a.62.62,0,0,1,.24.08l.33.19A94.76,94.76,0,0,0,599,200a90.65,90.65,0,0,0-55.85-42.16l-.29-.07A89.69,89.69,0,0,0,509,156.07c-12.7,6.35-68.41,37.46-67.12,94,1.58,68.6,56.53,91.84,64.47,94.84a88.74,88.74,0,0,0,11.24.73c1,0,2,0,3-.05l1.08-.06c.64,0,1.29-.05,1.93-.1l1.34-.11,1.66-.14c.5,0,1-.12,1.49-.18l1.48-.17,1.61-.25c.45-.07.9-.13,1.35-.21s1.12-.2,1.68-.31l1.26-.23c.59-.12,1.17-.26,1.76-.39l1.14-.25,1.85-.47,1-.27c.63-.17,1.27-.36,1.9-.55l1-.28c.66-.2,1.32-.42,2-.64l.84-.27,2-.74.75-.27c.7-.26,1.39-.54,2.09-.82l.66-.27c.72-.3,1.43-.61,2.14-.93l.58-.25c.73-.33,1.46-.68,2.18-1l.5-.23,2.21-1.13.43-.22c.75-.4,1.5-.81,2.24-1.23l.35-.2c.76-.43,1.52-.88,2.26-1.34l.29-.17q1.15-.71,2.28-1.44l.23-.15c.77-.5,1.53-1,2.29-1.55l.16-.11c.77-.54,1.54-1.1,2.3-1.66l.11-.09c.77-.57,1.53-1.16,2.28-1.76l.08-.06c.76-.61,1.51-1.23,2.26-1.86l0,0c.76-.65,1.5-1.3,2.24-2h0a97.07,97.07,0,0,0,17.44-20.9h0C597.16,299.32,597,298.38,596.78,297.42Zm-82.09-23.86,0-.69c-10.22,0-18.85-12.28-18.85-26.8,0-14,8-25.86,17.75-26.72l0-.77s26.64-1.7,27.21,23.81C541.44,273,514.69,273.56,514.69,273.56Z"/><path class="cls-3" d="M441.86,250c-1.29-56.51,54.42-87.62,67.12-94-36.71,5.12-68.71,32.64-78.28,71.42-13.22,50.82,16,102.61,65.57,115.54a89.13,89.13,0,0,0,10.06,1.85C498.39,341.88,443.44,318.64,441.86,250Z"/><path class="cls-4" d="M441.86,250c-1.29-56.51,54.42-87.62,67.12-94-36.71,5.12-68.71,32.64-78.28,71.42-13.22,50.82,16,102.61,65.57,115.54a89.13,89.13,0,0,0,10.06,1.85C498.39,341.88,443.44,318.64,441.86,250Z"/><path class="cls-3" d="M1170.45,313.5l3.32-7.36,73-150.73-84.29,139.06-1,2.32-8.37,15.62c-6.73,12.55-9.48,25.8-4.28,39h0c.07.18.14.35.2.53l.21.52c.16.36.33.71.5,1.07s.27.59.41.88.28.6.43.89c.48.93,1,1.85,1.54,2.75a44.35,44.35,0,0,0,5.22,6.94c.65.71,1.32,1.39,2,2a46,46,0,0,0,4.35,3.68,44.75,44.75,0,0,0,26.6,8.8l1.53,0c.5,0,1,0,1.52-.08l15.58-1.06-1-.08A46,46,0,0,1,1170.45,313.5Z"/><path class="cls-4" d="M1170.45,313.5l3.32-7.36,73-150.73-84.29,139.06-1,2.32-8.37,15.62c-6.73,12.55-9.48,25.8-4.28,39h0c.07.18.14.35.2.53l.21.52c.16.36.33.71.5,1.07s.27.59.41.88.28.6.43.89c.48.93,1,1.85,1.54,2.75a44.35,44.35,0,0,0,5.22,6.94c.65.71,1.32,1.39,2,2a46,46,0,0,0,4.35,3.68,44.75,44.75,0,0,0,26.6,8.8l1.53,0c.5,0,1,0,1.52-.08l15.58-1.06-1-.08A46,46,0,0,1,1170.45,313.5Z"/><path class="cls-3" d="M1148.92,144.39,1151,147c-.35-.5-.69-1-1-1.47a44.76,44.76,0,0,0,34.55,13.46l62.23-3.53-53.07-3.8c-13.16-.94-28-7.34-34.35-18.88-2.75-5-4.25-10.63-4.68-18.28-1.64-29.64,33.8-44.53,36-45.43l-11.23.63a45.57,45.57,0,0,0-6.77.9,44.67,44.67,0,0,0-16,6.87,45,45,0,0,0-9.43,8.73c-.45.55-.89,1.12-1.31,1.7a42.63,42.63,0,0,0-2.37,3.58,42.1,42.1,0,0,0-2,3.81,42.77,42.77,0,0,0-1.66,4c-.49,1.37-.91,2.77-1.27,4.19a44.36,44.36,0,0,0-1.28,8.82c-.07,1.51-.06,3,0,4.58.07,1.1.17,2.19.31,3.26a43.55,43.55,0,0,0,1.29,6.29c.28,1,.6,2,1,3,.18.49.36,1,.56,1.47.38,1,.8,1.92,1.26,2.85s.93,1.85,1.45,2.74a41.51,41.51,0,0,0,2.5,3.89h0l-.25-.26.5.61A44.91,44.91,0,0,0,1148.92,144.39Z"/><path class="cls-4" d="M1148.92,144.39,1151,147c-.35-.5-.69-1-1-1.47a44.76,44.76,0,0,0,34.55,13.46l62.23-3.53-53.07-3.8c-13.16-.94-28-7.34-34.35-18.88-2.75-5-4.25-10.63-4.68-18.28-1.64-29.64,33.8-44.53,36-45.43l-11.23.63a45.57,45.57,0,0,0-6.77.9,44.67,44.67,0,0,0-16,6.87,45,45,0,0,0-9.43,8.73c-.45.55-.89,1.12-1.31,1.7a42.63,42.63,0,0,0-2.37,3.58,42.1,42.1,0,0,0-2,3.81,42.77,42.77,0,0,0-1.66,4c-.49,1.37-.91,2.77-1.27,4.19a44.36,44.36,0,0,0-1.28,8.82c-.07,1.51-.06,3,0,4.58.07,1.1.17,2.19.31,3.26a43.55,43.55,0,0,0,1.29,6.29c.28,1,.6,2,1,3,.18.49.36,1,.56,1.47.38,1,.8,1.92,1.26,2.85s.93,1.85,1.45,2.74a41.51,41.51,0,0,0,2.5,3.89h0l-.25-.26.5.61A44.91,44.91,0,0,0,1148.92,144.39Z"/><path class="cls-3" d="M322.57,226s36.27-15.3,37.48-27.17c-5.7,4.49-17.3,10.88-37,16.83Z"/><path class="cls-4" d="M322.57,226s36.27-15.3,37.48-27.17c-5.7,4.49-17.3,10.88-37,16.83Z"/><path class="cls-3" d="M513.55,218.58l0,.77c.37,0,.74-.08,1.12-.08,10.23,0,18.87,12.27,18.87,26.8s-8.64,26.8-18.87,26.8h0l0,.69s26.75-.57,26.07-31.17C540.19,216.88,513.55,218.58,513.55,218.58Z"/><path class="cls-4" d="M513.55,218.58l0,.77c.37,0,.74-.08,1.12-.08,10.23,0,18.87,12.27,18.87,26.8s-8.64,26.8-18.87,26.8h0l0,.69s26.75-.57,26.07-31.17C540.19,216.88,513.55,218.58,513.55,218.58Z"/><path class="cls-3" d="M1092.2,180.06l-1.22.56c.36.16.69.33,1,.49A5.55,5.55,0,0,0,1092.2,180.06Z"/><path class="cls-4" d="M1092.2,180.06l-1.22.56c.36.16.69.33,1,.49A5.55,5.55,0,0,0,1092.2,180.06Z"/><path class="cls-3" d="M1055.39,196.82l-.16.07-.51,10.34s33-13.94,37.08-25.53c-5.87,4.46-17.34,10.64-36.41,16.41Z"/><path class="cls-4" d="M1055.39,196.82l-.16.07-.51,10.34s33-13.94,37.08-25.53c-5.87,4.46-17.34,10.64-36.41,16.41Z"/><path class="cls-3" d="M882,242.2l-.62,11.52c35.09-11.52,40.84-35.84,41.51-39.45C922,217.76,912.51,230.62,882,242.2Z"/><path class="cls-4" d="M882,242.2l-.62,11.52c35.09-11.52,40.84-35.84,41.51-39.45C922,217.76,912.51,230.62,882,242.2Z"/><path d="M323.08,215.61c19.67-6,31.27-12.34,37-16.83-6.5-3.27-18.88-6.89-37-7.58Z"/><polygon points="810.34 257.56 810.34 257.56 810.34 257.56 810.34 257.56 810.34 257.56"/><path d="M1150,145.48c.36.48.7,1,1,1.47a57.34,57.34,0,0,1,10.08,24.81c1.63,10.82,1.11,29.25-14.35,47.89-9.11,11-23.4,22-45.52,31.63l43.13,32.66,5.24,4a32.62,32.62,0,0,1,9.68,11.83l3.18-5.26,84.29-139.06-62.23,3.53A44.76,44.76,0,0,1,1150,145.48Z"/><path d="M533.56,246.07c0-14.53-8.64-26.8-18.87-26.8-.38,0-.75,0-1.12.08-9.73.86-17.75,12.73-17.75,26.72,0,14.52,8.63,26.79,18.85,26.8h0C524.92,272.87,533.56,260.6,533.56,246.07Z"/><path d="M1091,180.62c-6.8-3.08-18.71-6.28-35.59-6.92v24.41c19.07-5.77,30.54-12,36.41-16.41.19-.14.39-.28.56-.42l-.36-.17C1091.67,181,1091.34,180.78,1091,180.62Z"/><path d="M882,199.47V242.2c30.54-11.58,40-24.44,40.89-27.93.06-.3.08-.47.08-.47C922,210.43,909.17,200.73,882,199.47Z"/><path d="M1454.16,347.88a83,83,0,0,0-28.83-57.75,81.7,81.7,0,0,0-60.15-19.66l-18.59,1.26L1402.14,180A83.32,83.32,0,0,0,1326.8,53.62L1179.19,62a83.31,83.31,0,0,0-69.53,45.48c-27.58-7.38-59.44-9.15-93.63-5l-.21,0a42.23,42.23,0,0,0-4.26.76c-2.26.43-4.17.92-5.58,1.31-2.24.6-4.14,1.19-6,1.86l-.84.31c-2.23.86-4.08,1.72-5.75,2.52l-.3.14c-2.12,1-4,2.09-5.88,3.21l-.32.19a80.13,80.13,0,0,0-11,8.43c-2,1.85-3.47,3.5-4.43,4.57-1.62,1.79-3,3.5-4.29,5.2l-.34.47a66,66,0,0,0-3.59,5.54,67.19,67.19,0,0,0-3.25,6.07c-27.7-13.4-63.66-20.15-107.79-15.58l-1.1,0A70.84,70.84,0,0,0,790.67,161a.21.21,0,0,1,0-.06c-.27-.08.06-.33-.1-.41-.87-.42-1.12-1.39-1.77-2s-1.07-1.73-2-2.28c-.28-.37-.57-.73-.86-1.1a2.61,2.61,0,0,1-1.06-1.26,6.39,6.39,0,0,1-1.72-1.94.58.58,0,0,1-.37-.43,3.5,3.5,0,0,1-1.13-1.07.22.22,0,0,1-.2-.2c-1.53-1.57-3.34-2.81-5-4.29a4.76,4.76,0,0,1-1.1-.8,10.8,10.8,0,0,0-2.71-2c-.23,0-.34-.18-.44-.36a2.84,2.84,0,0,1-1.27-.67.27.27,0,0,1-.24-.21,7.17,7.17,0,0,1-1.51-.65c-.23-.09-.45-.27-.34-.56.32-.86,0-1.81.41-2.65,0-.4-.15-.81.15-1.17a.08.08,0,0,1,0-.11l0-4.28v-.64c0-.2-.07-.38.16-.48a15.55,15.55,0,0,1,0-1.81,61.78,61.78,0,0,0,.61-7.79c.08-4,0-8,.06-12a.35.35,0,0,1,.15-.44c.14-1.09-.22-2.21.21-3.28,0-.53,0-1.06,0-1.59s-.21-1.34.22-2c0-1.26,0-2.52,0-3.78,0-.27,0-.57.19-.79.15-1.75-.22-3.53.27-5.27,0-.86-.27-1.75.17-2.59.32-1.29,0-2.6.17-3.91a23.89,23.89,0,0,0,.26-4.78c0-.34.18-.6.26-.91,0-1.43,0-2.87,0-4.3,0-.18,0-.35.2-.44l.06-3.17c0-.14,0-.21.15-.26a.26.26,0,0,1,.05-.17c0-1.35,0-2.7,0-4.05l-.25-.4a17.45,17.45,0,0,1-2.81-2.34h0c-.42,0-.59-.38-.85-.62-1.57-1.05-3.24-2-4.88-2.88a4.54,4.54,0,0,1-1.75-.82.39.39,0,0,1-.18,0l-4.52-1.88L754.31,58a5.84,5.84,0,0,1-1.73-.77l-.41-.08c-.14,0-.2,0-.24-.17l-2.11-.89-2.57,1.06a3.45,3.45,0,0,1-.47.24c-4.31,1.66-8.63,3.27-12.92,5-5.41,2.15-10.77,4.43-16,6.92-4.29,2-8.5,4.21-12.61,6.58A184.57,184.57,0,0,0,689.68,86Q682.12,91.5,675,97.49c-3.29,2.77-6.53,5.6-9.6,8.6-4,3.89-7.89,7.91-11.55,12.14-2.44,2.81-4.89,5.61-7.18,8.54a162.1,162.1,0,0,0-23,40.57,97.85,97.85,0,0,0-5,19.33c-1-1-2.06-2.08-3.11-3.09-.76-.73-1.5-1.46-2.28-2.17a133.55,133.55,0,0,0-57.06-30.83l-.06,0-1.75-.46-.48-.08a133.51,133.51,0,0,0-101.76,17c-1,.63-2,1.3-3,1.95-11.63-14.8-27.83-27-48-35.79a169.65,169.65,0,0,0-21.73-7.64,88.19,88.19,0,0,0,8.06-38.14h0C386.86,39.21,347.17,0,299,0L87.42,2.54A88.45,88.45,0,0,0,0,92.07c.57,48.2,40.26,87.42,88.47,87.42l18.93-.22V344.62a88.41,88.41,0,0,0,138.42,73A71.2,71.2,0,0,0,345.47,411l10.9,8.25a70.74,70.74,0,0,0,43.08,14.49,71.84,71.84,0,0,0,55.86-26.95,133.17,133.17,0,0,0,32.17,13.05l.56.14a132.07,132.07,0,0,0,31.71,3.85,135.71,135.71,0,0,0,78.65-25.2c28,20.22,65.75,35,99.85,28.6a38.58,38.58,0,0,0,6.33-1.76,87.54,87.54,0,0,0,24,3.3,93.57,93.57,0,0,0,33.75-6.37,38.17,38.17,0,0,0,5.62-2.35q.66-.33,1.29-.69a67.52,67.52,0,0,0,8.29-4.95l0,0a38.59,38.59,0,0,0,6.93-4.49c2.13-.37,4.06-.81,5.75-1.24a71.35,71.35,0,0,0,132.28-37.15V370a249.42,249.42,0,0,0,31.39-14.53,71.32,71.32,0,0,0,123.91,38.07l10.9,8.25a70.61,70.61,0,0,0,37.2,14.25,83.87,83.87,0,0,0,66.31,33c2.06,0,4-.07,5.83-.21l178.69-12.12A83.42,83.42,0,0,0,1454.16,347.88ZM747,123.36c.12-1,.17-2,.21-3,.08-1.88.32-3.74.29-5.63,0-3.2.39-6.37.47-9.57,0-1.33.06-2.69.16-4,.22-3.12.09-6.26.25-9.38.1-1.88,0-3.77.19-5.63.22-2.36.6-4.7.91-7.05.28-2.06.59-4.12.81-6.2.28-2.64.3-5.3.79-7.91.12-.69.07-1.41.24-2.11.08-.33.18-.53.53-.52a7.45,7.45,0,0,1,2.85.28c3.14,1.27,6.13,2.84,9.13,4.39a24.44,24.44,0,0,1,2.32,1.69c1.17.79,2.35,1.58,3.58,2.3A2.19,2.19,0,0,1,771,73.45a3.39,3.39,0,0,0,0,.64c-.11,2.29-.32,4.58-.6,6.87-.25,2-.44,4-.69,6s-.57,4.27-.8,6.42c-.09.87-.18,1.76-.24,2.64-.14,2.15-.43,4.29-.61,6.44-.19,2.33-.46,4.65-.72,7-.3,2.8-.29,5.6-.44,8.39a104.65,104.65,0,0,1-1.2,11.29,34.68,34.68,0,0,0-.48,7c0,.9-.07.95-.89.64a22.69,22.69,0,0,1-4.38-2.19,46.34,46.34,0,0,0-8.15-3.93,24.72,24.72,0,0,0-4.57-1.66c-.46-.09-.63-.36-.61-.84A47.25,47.25,0,0,1,747,123.36ZM734.8,91.05c.1-1,.16-1.91.24-2.86.27-3.45.63-6.9,1-10.34.32-2.67.79-5.32.91-8,0-.36.07-.64.51-.64s.73.13.75.58a15.15,15.15,0,0,1,0,2.13c-.24,2.32-.62,4.63-.79,7-.21,2.76-.69,5.47-1.13,8.19-.48,3-1,6.07-1.53,9.1a4.71,4.71,0,0,1-.22.59A25.83,25.83,0,0,1,734.8,91.05Zm-6.56,25.12c0-2.94.36-5.87.45-8.81.06-2,.22-4,.42-6,.28-2.78.43-5.57.79-8.35.26-2,.29-4.09.47-6.14s.41-4.22.59-6.33c.08-.92.13-1.84.23-2.76.22-1.9.3-3.81.46-5.71.1-1.17.49-1.6,1.31-1.56.39,0,.62.16.6.57a41.38,41.38,0,0,1-.15,5.22A32.69,32.69,0,0,0,733.2,80c-.1,1.63-.21,3.26-.31,4.89-.15,2.22-.24,4.45-.57,6.66-.14.94-.15,1.9-.21,2.85a142.28,142.28,0,0,1-2.34,17.45c-.38,1.94-.8,3.88-1.14,5.83a.84.84,0,0,1-.46.66C727.75,117.54,728.25,116.87,728.24,116.17Zm-28.43,3.71c.26-1.78.71-3.53.92-5.33s.5-3.85.76-5.77.57-4,.81-6c.25-2.17.45-4.35.69-6.53.19-1.83.44-3.65.59-5.48.08-1.09.13-2.19.26-3.28,0-.36,0-.74.5-.76s.57.4.57.8v.86c-.33,2.67-.17,5.37-.6,8-.16,1-.13,2-.22,3.07-.29,3.34-.67,6.68-1.07,10-.28,2.28-.4,4.58-.69,6.86a47.64,47.64,0,0,1-.69,5.46c-.09.38-.08,1-.65,1s-.78-.44-1-.85A3.21,3.21,0,0,1,699.81,119.88Zm-5.22-10.28q.17-2.38.48-4.74c.32-2.38.57-4.77.95-7.14.26-1.56.35-3.13.56-4.69a15.85,15.85,0,0,1,.4-1.65c0-.23,0-.57.38-.52s.32.39.25.6a15.29,15.29,0,0,0-.22,2c-.56,3.31-.81,6.66-1.22,10-.27,2.2-.26,4.44-.47,6.66s-.3,4.31-.42,6.46a1.2,1.2,0,0,1-.07.42c-.17.35-.11,1-.7.91s-.49-.6-.5-1,0-.57,0-.85h0C694.17,113.89,694.44,111.75,694.59,109.6Zm-6.5-1.29c.25-1.61.33-3.23.56-4.84.29-2,.51-4.06.77-6.09a14.44,14.44,0,0,1,.45-2.6c.07-.22.08-.57.43-.5s.32.46.25.71c-.83,2.77-.73,5.65-1.07,8.48-.28,2.35-.21,4.73-.6,7.07-.06.37-.11.7-.6.87A5.32,5.32,0,0,1,688.09,108.31Zm-14,3.42a3,3,0,0,1,.09-.52c.08-.22.16-.53.48-.47s.22.35.18.6c-.37,2.3-.59,4.62-.76,7-.13,1.9-.33,3.8-.56,5.69,0,.41,0,1.15-.55,1.11s-.59-.76-.58-1.32c.22-1.8.43-3.63.68-5.45A61.36,61.36,0,0,1,674.11,111.73Zm-3.81,12.79c.2-1.69.28-3.38.41-5.08a60.65,60.65,0,0,1,.92-7.36c.09-.44.18-1.2.81-1,.37.11.21.8,0,1.23a4.34,4.34,0,0,0-.37,2.06c-.09,1.49-.21,3-.32,4.46a39.21,39.21,0,0,1-.39,5.93,4.06,4.06,0,0,1-.94,2.22A7.08,7.08,0,0,1,670.3,124.52Zm-52.17,98c.2-1.49.38-3,.6-4.45.27-1.82.51-3.65.89-5.45.78-3.65,1.53-7.31,2.51-10.92A103.3,103.3,0,0,1,626,190.33a100.36,100.36,0,0,1,6.43-13,87.34,87.34,0,0,1,6.87-10.08,86.13,86.13,0,0,1,6.8-7.6,92,92,0,0,1,11.25-9.51,79.69,79.69,0,0,1,12-7.16,92,92,0,0,1,19.08-6.63,78,78,0,0,1,7.71-1.42c1.7-.21,3.43-.4,5.15-.52a88.85,88.85,0,0,1,11.06-.34c2.35.12,4.72.24,7.07.53,1.92.24,3.85.46,5.76.72,2.15.29,4.3.65,6.43,1.08,3.79.77,7.58,1.56,11.33,2.52a96,96,0,0,1,16.33,5.86,82.19,82.19,0,0,1,13.69,7.63c2.52,1.81,4.92,3.76,7.25,5.81,2,1.71,3.68,3.63,5.48,5.49a69.54,69.54,0,0,1,8.42,11.48c1.28,2,2.39,4.16,3.51,6.28a1,1,0,0,1,.17.61c-.48.12-.81-.22-1.14-.39-5.52-2.89-11.27-5.27-17-7.76a134.82,134.82,0,0,0-14.78-5.55c-3.35-1-6.74-1.84-10.17-2.52-2.43-.48-4.87-.86-7.32-1.21-1.56-.22-3.15-.34-4.72-.51-2.21-.25-4.44-.22-6.63-.59a1.72,1.72,0,0,0-.32,0c-3.77,0-7.54-.45-11.3-.18-2.86.2-5.72.24-8.57.56-2.13.24-4.28.41-6.39.73a125.42,125.42,0,0,0-12.55,2.63,154.17,154.17,0,0,0-23.25,8.28,150.63,150.63,0,0,0-20.3,10.8c-.23.14-.49.25-.8.41a21.59,21.59,0,0,1,.52-3.58c.25-1.66.55-3.31.76-5a10.19,10.19,0,0,0,.22-2,1.67,1.67,0,0,0-1.93-1.49,6.41,6.41,0,0,0-3.35,1.68c-2.24,2.22-4.67,4.25-6.94,6.45A25.53,25.53,0,0,1,638,186.2a19,19,0,0,1-3,2.68,14.81,14.81,0,0,0-4.56,5.78,83.87,83.87,0,0,0-4.58,14.47,17.37,17.37,0,0,0-.35,1.86c-.18,1.57-1.23,2.71-2,4a47.87,47.87,0,0,0-5,11.84c-.13.53-.41.65-.9.76C617.8,225.86,618,224.19,618.13,222.52ZM243.81,108.14V313.73a49.91,49.91,0,0,1-.91,9.46,1.43,1.43,0,0,1,0,.22,49.86,49.86,0,0,1-98.78-9.68V109.31L87.17,110h-.63A49.87,49.87,0,0,1,86,10.26l30-.36L296.45,7.72h.63a49.89,49.89,0,0,1,.6,99.77ZM423.67,351.27a32.59,32.59,0,0,1-15.2,11.11,33,33,0,0,1-11,1.88,32.61,32.61,0,0,1-19.75-6.64L323.1,316.26V332.6a32.76,32.76,0,1,1-65.51,0V159.89c0-.43.11-.84.13-1.27a29.64,29.64,0,0,1,.36-3.55,28.2,28.2,0,0,1,.52-2.94c.28-1.09.63-2.15,1-3.21s.69-1.92,1.12-2.84a29.47,29.47,0,0,1,1.53-2.82c.53-.9,1.06-1.77,1.66-2.61s1.32-1.64,2-2.43,1.37-1.52,2.14-2.23a28.27,28.27,0,0,1,2.45-2,27.52,27.52,0,0,1,2.52-1.8c.9-.55,1.83-1,2.79-1.51s1.94-.92,2.95-1.31,2-.65,3-.92a29.65,29.65,0,0,1,3.29-.75c.45-.06.87-.23,1.34-.29,8.48-1,16.72-1.6,24.71-1.8,62.67-1.54,108.89,21.69,117,60.36.23,1.09.45,2.19.62,3.31,2.26,15,.4,44.58-39.61,69.09a161.9,161.9,0,0,1-20.26,10.43L386.37,282l30.91,23.4A32.78,32.78,0,0,1,423.67,351.27Zm173.7-51a97.07,97.07,0,0,1-17.44,20.9h0c-.74.67-1.48,1.32-2.24,2l0,0c-.75.63-1.5,1.25-2.26,1.86l-.08.06c-.75.6-1.51,1.19-2.28,1.76l-.11.09c-.76.56-1.53,1.12-2.3,1.66l-.16.11c-.76.53-1.52,1.05-2.29,1.55l-.23.15q-1.12.73-2.28,1.44l-.29.17c-.74.46-1.5.91-2.26,1.34l-.35.2c-.74.42-1.49.83-2.24,1.23l-.43.22-2.21,1.13-.5.23c-.72.35-1.45.7-2.18,1l-.58.25c-.71.32-1.42.63-2.14.93l-.66.27c-.7.28-1.39.56-2.09.82l-.75.27-2,.74-.84.27c-.66.22-1.32.44-2,.64l-1,.28c-.63.19-1.27.38-1.9.55l-1,.27-1.85.47-1.14.25c-.59.13-1.17.27-1.76.39l-1.26.23c-.56.11-1.12.22-1.68.31s-.9.14-1.35.21l-1.61.25-1.48.17c-.49.06-1,.13-1.49.18l-1.66.14-1.34.11c-.64.05-1.29.07-1.93.1l-1.08.06c-1,0-2,.05-3,.05a91.89,91.89,0,0,1-21.3-2.58c-49.56-12.93-78.79-64.72-65.57-115.54,9.57-38.78,41.57-66.3,78.28-71.42a89.69,89.69,0,0,1,33.88,1.74l.29.07A90.65,90.65,0,0,1,599,200a94.76,94.76,0,0,1,12,33.59l-.33-.19a.62.62,0,0,0-.24-.08h0l-.47-.26c-.54-.31-.89.29-1.3.51a6.43,6.43,0,0,0-1.88,1.72,35.54,35.54,0,0,0-5.44,9.92,87,87,0,0,0-5.53,20,62.94,62.94,0,0,0-.81,8.55c0,2-.12,4.08.08,6.08a74.86,74.86,0,0,1,.63,8,54.62,54.62,0,0,0,1.08,9.47c.17,1,.38,1.9.59,2.85ZM763.49,371c0-.18.1-.2.23-.22C763.68,370.84,763.75,371.06,763.49,371Zm13.93-14.09a45.71,45.71,0,0,1-24.28,12.54,30.4,30.4,0,0,1-6.94.65,75.62,75.62,0,0,1-11.05-.58c-3-.38-6-1.29-9-1.9-1.86-.37-3.5-1.27-5.29-1.79-.54-.16-.29-.58-.19-.88.26-.76.52-1.53.77-2.29.18-.54.37-1.08.55-1.61.3-.86.59-1.72.91-2.57,2.06-5.55,4.31-11,6.86-16.36.19-.41.4-.81.6-1.22A93,93,0,0,1,736,331c.38-.57.75-1.15,1.14-1.71s.94-1.34,1.41-2c.7-1,1.41-2,2.12-2.92,1.84-2.5,3.74-4.94,5.76-7.3a17.17,17.17,0,0,1,2.17-2.26l.16-.13a6.74,6.74,0,0,1,1.78-1l.26-.08a1,1,0,0,1,.76.06l.15.07a52.61,52.61,0,0,1,6.92,5.62c5.49,5.16,9.23,11.52,12.54,18.17a65.39,65.39,0,0,1,4.64,11c.7,2.44,1.41,4.88,1.9,7.37A1,1,0,0,1,777.42,356.86Zm28.09-11.28a17.66,17.66,0,0,1-7.54,4.14,74.92,74.92,0,0,1-8,1.92,13.93,13.93,0,0,1-6.42-.29c-1.36-.39-2.7-.81-4.08-1.13a.66.66,0,0,1-.6-.56h0l0-.09c-1.25-7.08-3.77-13.76-6.55-20.34-.18-.43-.39-.85-.59-1.27a43.16,43.16,0,0,0-5.15-8.47l-.25-.34c-1.51-1.9-3.07-3.74-4.75-5.48l-.07-.08c-.39-.41-.79-.81-1.2-1.21l-.14-.13c-.42-.41-.86-.81-1.3-1.19l-.19-.16c-.45-.37-.91-.74-1.39-1.07l-.15-.1a16.56,16.56,0,0,0-1.45-.89c-.41-.21-.82-.42-1.25-.6a4.8,4.8,0,0,0-5.66.93,46.14,46.14,0,0,0-6.63,7.46c-2.38,3.38-4.8,6.73-7,10.2a99.66,99.66,0,0,0-6.64,11.91c-2.15,4.66-4.15,9.38-5.87,14.21-.91,2.58-1.76,5.18-2.63,7.78a3.57,3.57,0,0,0-.08.74,2.25,2.25,0,0,1-1.43,2,98.71,98.71,0,0,1-15.23,5.38,33.49,33.49,0,0,1-11.85,1.19A60,60,0,0,1,679,367.66,194.36,194.36,0,0,1,657.55,360,114,114,0,0,1,634,347.12c-2.72-2-5.3-4.16-7.83-6.39-2.11-1.86-4.14-3.81-6.12-5.81a59.93,59.93,0,0,1-11.4-15.68c-.79-1.59-1.83-3-2.65-4.6a55.25,55.25,0,0,1-4.22-12.07,77.74,77.74,0,0,1-1.77-8.5,42.94,42.94,0,0,1-.25-8.71c.18-2.87.41-5.75.53-8.63.09-2.29.33-4.59.61-6.88a67.24,67.24,0,0,1,4.23-15.35,136.75,136.75,0,0,1,6.12-14.12,3.6,3.6,0,0,1,.79-1.24c.29-.5.28-1.12.67-1.57a9.27,9.27,0,0,0,1.68-.51c0,.18,0,.36,0,.54.15,3.07.57,6.12.68,9.2a44.81,44.81,0,0,0,1.87,9.63,120.65,120.65,0,0,0,5.35,14.75,111,111,0,0,0,5.44,11.32c.92,1.7,1.73,3.46,2.62,5.18a113.17,113.17,0,0,0,6.26,9.91,77.94,77.94,0,0,0,5.52,7.48,76.93,76.93,0,0,0,9,9.19A78.58,78.58,0,0,0,663,322.63,54,54,0,0,0,679.33,329a31.91,31.91,0,0,0,7.6.67,43.33,43.33,0,0,0,13.57-2.8,58.61,58.61,0,0,0,14-7.92c3.71-2.77,7.21-5.78,10.73-8.78,4.64-4,9.36-7.81,14.81-10.66a29.1,29.1,0,0,1,9.1-3.31,9.64,9.64,0,0,1,4.08.52c3.77,1.09,7.57,2.07,11.24,3.48,3.5,1.34,6.52,3.56,9.61,5.64,3.84,2.58,7.77,5,12.3,6.11a21,21,0,0,0,7.32.69,39.39,39.39,0,0,0,5.85-.8,23.14,23.14,0,0,0,6.93-3.39c1.18-.78,2.32-1.62,3.49-2.42.3-.2.6-.37.6-.87-1.21-.29-2.32.31-3.47.43a11.18,11.18,0,0,1-2.7.36,41.78,41.78,0,0,1-4.14.75,36.77,36.77,0,0,1-7.47.83,22.52,22.52,0,0,1-8.63-1.82,52.1,52.1,0,0,1-9.75-5.6,44.1,44.1,0,0,0-14.06-6.61c-.75-.2-1.47-.49-2.22-.7-.4-.12-.45-.24-.43-.72a53.4,53.4,0,0,0,.26-8,32.82,32.82,0,0,0-.93-5.55c-.28-1-.24-1.15.8-1.4a68,68,0,0,0,10-3.51,7.1,7.1,0,0,0,3.57-4.75,2.48,2.48,0,0,0-3.14-3,1.52,1.52,0,0,1-.51.09.78.78,0,0,0-1,1c.19,1.17-.37,1.69-1.32,2.17a48.8,48.8,0,0,1-12.5,4.56,26.61,26.61,0,0,1-6,.62,30.33,30.33,0,0,1-10.47-2.18,39.42,39.42,0,0,1-10.11-6.16,123,123,0,0,1-9.5-9.33,43.88,43.88,0,0,0-6.37-5.73,17.57,17.57,0,0,0-7.39-3.14A19.71,19.71,0,0,0,693,249a30.8,30.8,0,0,0-12.13,8.85,47.79,47.79,0,0,0-9.06,16.51,59.82,59.82,0,0,0-2.18,8.21c-.12,1.33-.59,2.61-.71,3.93-.07.87-.54,1.75-.12,2.66.14.3-.12.54-.21.79a2.13,2.13,0,0,0-.07,1.64c.18.41,0,.62-.34.84a31.55,31.55,0,0,0-3.91,3.2c-.87.73-1.89,1.2-2.76,1.93-.52.44-.93,1.06-1.69,1.22a.89.89,0,0,0-.54.61c-.11,1.17-.5,2.41.23,3.46.5.71,1.08,1.39,1.64,2.06,1,1.22,1.84,2.68,3.45,3.29a4.34,4.34,0,0,0,2.17.2.73.73,0,0,0,.5-.51c.15-1.32,1.15-2.11,1.91-3.22a49.94,49.94,0,0,0,3.45,9.92,43.55,43.55,0,0,0,5.8,8.81,8,8,0,0,1-2.35-.5,58.85,58.85,0,0,1-17.43-8.43,75.9,75.9,0,0,1-8-6.36,35.22,35.22,0,0,1-3.53-4c-1.83-2.28-3.68-4.55-5.4-6.92-2.06-2.85-3.92-5.82-5.78-8.8-1.56-2.51-3-5.1-4.6-7.57a44.85,44.85,0,0,1-4.09-8.31c-1.18-3-2.54-6-3.74-9a72.9,72.9,0,0,1-3.59-12.16c-.43-2-.87-4.11-1.3-6.16a2.5,2.5,0,0,1,.19-1.65,90.32,90.32,0,0,1,7.73-13.47,72.21,72.21,0,0,1,8.45-9.63c8-7.64,17-14,26.41-19.82a166.63,166.63,0,0,1,16.19-8.94,148.39,148.39,0,0,1,21.93-8.49,118.19,118.19,0,0,1,13-3c2.21-.37,4.43-.69,6.67-.92,3.1-.32,6.2-.52,9.31-.67,2.06-.1,4.12-.18,6.18-.14,2.88.07,5.76.19,8.62.44s5.8.61,8.68,1.06a141.08,141.08,0,0,1,14.54,3,170.81,170.81,0,0,1,21.43,7.34c4.86,2,9.62,4.25,14.33,6.6a3.39,3.39,0,0,0,.84.4c1.27.22,1.66,1.26,1.9,2.24.51,2,1.26,3.94,1.81,5.94a24.36,24.36,0,0,1,1.21,6.93c.31,1.26.45,2.56.69,3.82.49,2.52.24,5.08.6,7.6a16.72,16.72,0,0,1,0,2.24c0,2.5.08,5,0,7.49-.16,4.3-.11,8.61-.25,12.91a49,49,0,0,1-.77,7.33,17.33,17.33,0,0,0-.2,3,82.13,82.13,0,0,1-1,8.73c-.22,1.9-.62,3.78-1,5.66-.48,2.67-1,5.35-1.48,8-.33,1.66-.67,3.33-.93,5a30.29,30.29,0,0,1-.73,3.63,18.1,18.1,0,0,0-.36,1.78c-.58,2.58-1.08,5.18-1.75,7.75-.3,1.16-.64,2.3-1,3.45a13.25,13.25,0,0,1-2.3,4c.39.35.63,0,.85-.14a6.24,6.24,0,0,0,2.25-3,51.3,51.3,0,0,0,2.5-8.25c.53-2.34,1.16-4.65,1.7-7,.39-1.68.7-3.38,1.06-5.06.4-1.89.81-3.78,1.21-5.68.29-1.41.53-2.83.89-4.23.4-1.57.46-3.21,1-4.76a4.27,4.27,0,0,0,.13-.95c0-.37.08-.74.13-1.11a2.17,2.17,0,0,0,0-.25l.15-.92v0a54.83,54.83,0,0,0,.92-6h0c0-.3,0-.59,0-.88,0-.08.12-.16.19-.23l.07,0,.07,0a29.38,29.38,0,0,0,2.51,4.26A49.42,49.42,0,0,1,819,276.88c.55,3.15,1,6.31,1.34,9.47a2.32,2.32,0,0,1,0,.53,72.05,72.05,0,0,1,.65,12.19,16,16,0,0,1-.19,3.45.23.23,0,0,1,0,.2l0,.87c-.13,1.59-.18,3.18-.4,4.76-.36,2.53-.72,5.06-1.26,7.56a53.74,53.74,0,0,1-2.51,9,70.25,70.25,0,0,1-5,11.83A32.9,32.9,0,0,1,805.51,345.58Zm-134.8-57.15a.42.42,0,0,1,.48-.45c1.46.18,2.83-.5,4.42-.44-1.66,1.23-3.49,1.93-5.08,3.2C670.37,289.87,670.83,289.18,670.71,288.43Zm.63-3.19A58.75,58.75,0,0,1,674.86,273a49.13,49.13,0,0,1,5.22-9.78,31.1,31.1,0,0,1,15-11.69,16.4,16.4,0,0,1,4.7-1,14.1,14.1,0,0,1,9,2.88,36.72,36.72,0,0,1,6.44,6,108.08,108.08,0,0,0,8,8.26A42.84,42.84,0,0,0,733.76,275a35.53,35.53,0,0,0,9.48,2.95,39.85,39.85,0,0,0,7.71.36,8.16,8.16,0,0,0,2.58-.35c.4-.15.51,0,.6.42a17.1,17.1,0,0,1,.4,2.58c0,.47-.13.58-.6.61a20.79,20.79,0,0,1-3.25-.31c-1.46-.15-2.91-.43-4.37-.55-4.17-.35-8.35-.5-12.54-.48-.28,0-.57,0-.85,0-4-.16-8,.17-11.93.25-2.58.05-5.16.26-7.73.43s-5.07.32-7.58.63c-2.29.28-4.59.54-6.88.77-2.79.29-5.56.81-8.37,1-1.18.06-2.37.48-3.58.64-1.55.21-3.09.53-4.63.8-1.92.34-3.83.69-5.75,1a6,6,0,0,1-.85,0,14.71,14.71,0,0,1-3.15.66C671.13,286.67,671.09,286.62,671.34,285.24Zm5.93,3.52a31.16,31.16,0,0,1,3.68-1.55,15.45,15.45,0,0,1,3.85-.88c-6.87,5.48-13.16,11.43-18.18,18.71a43.9,43.9,0,0,0-3.36-4.29c-.29-.32-.2-.5,0-.8a20.34,20.34,0,0,1,2.31-2.51A42.62,42.62,0,0,1,677.27,288.76ZM671,302.28a87.77,87.77,0,0,1,6.35-6.3,119.85,119.85,0,0,1,10.89-9.23,3.78,3.78,0,0,0,1.3-1.19c.22-.4.87-.3,1.24-.33,1.5-.08,3-.34,4.48-.51,1.7-.2,3.41-.25,5.09-.58a15.19,15.19,0,0,1,2.52-.19c1.31-.05,2.61-.24,3.92-.3,2.68-.12,5.36-.31,8-.44l3.6-.16c5.16-.29,10.32-.25,15.48-.2,3,0,6,.17,8.91.44a84.24,84.24,0,0,1,9.86,1.43,2.63,2.63,0,0,0,.49.06c.5,0,1,0,1.53,0a.25.25,0,0,1,0-.07.1.1,0,0,1,0,0,.07.07,0,0,1,.1,0c.1.16,0,.32-.15.42l0,.06-.06,0a34.48,34.48,0,0,1-.61,6.16c-.08.57-.38.55-.71.46-2.75-.82-5.49-.4-8.21.14a32.26,32.26,0,0,0-13.37,6.45c-1.69,1.29-3.57,2.29-5.23,3.65a49.85,49.85,0,0,0-4.76,3.95,58.3,58.3,0,0,1-6.65,5.5c-1.31,1-2.54,2.14-3.76,3.25a31.34,31.34,0,0,1-11.56,6.76c-1.62.52-3.12,1.3-4.73,1.84a22.55,22.55,0,0,1-8.41,1.42c-1.56-.08-3.13,0-4.7,0-1.29,0-1.77-1.07-2.39-1.85A43.83,43.83,0,0,1,672.78,311,54.21,54.21,0,0,1,670.7,303C670.63,302.69,670.83,302.5,671,302.28Zm314.72-69.46a74,74,0,0,1-6,14.53,81.6,81.6,0,0,1-4.42,7.2q-2.44,3.58-5.4,7.1c-1.31,1.56-2.7,3.12-4.16,4.66s-3,3.07-4.64,4.58c-.81.76-1.64,1.51-2.49,2.26-1.71,1.5-3.49,3-5.36,4.45q-4.69,3.67-10.09,7.21a171.58,171.58,0,0,1-15.71,9.05,247.67,247.67,0,0,1-45.49,17.35v29.43a32.21,32.21,0,0,1-2,11.19A33.25,33.25,0,0,1,867.12,368c-.58.38-1.16.74-1.76,1.08a32.69,32.69,0,0,1-3.71,1.82c-.64.27-1.29.51-1.95.74a32.52,32.52,0,0,1-4.07,1.1,33.43,33.43,0,0,1-6.45.63h0a32.4,32.4,0,0,1-11.26-2,33.18,33.18,0,0,1-8.34-4.52c-.84-.63-1.65-1.3-2.43-2a32.68,32.68,0,0,1-10.73-24.25V337c.26-.53.53-1.06.8-1.59a13.94,13.94,0,0,1,1.21-2.67.91.91,0,0,1,.34-.8.17.17,0,0,1,.09-.18,8.38,8.38,0,0,1,.71-1.92.28.28,0,0,1,.15-.31c.06-.12.1-.24.16-.36s0-.14.07-.21a7.38,7.38,0,0,1,.7-2.11.29.29,0,0,1,.14-.33,36,36,0,0,1,1.13-3.52l0-.21a4.63,4.63,0,0,1,.07-.52q.66-2.6,1.19-5.22c.39-1.87.57-3.78,1-5.64a11.34,11.34,0,0,0,.58-3.27,28.21,28.21,0,0,1,.23-3.71c.07-2.6.32-5.21.25-7.81,0-1.27-.18-2.52-.09-3.79a.18.18,0,0,1,0-.19c-.13-.28,0-.57,0-.84-.22-.17-.19-.35,0-.53v-.25a.41.41,0,0,1-.14-.52c0-.14,0-.29,0-.43a.44.44,0,0,1,0-.43,43.37,43.37,0,0,1-.69-5.55c-.27-.25-.13-.58-.15-.87,0-.13,0-.26,0-.4a1.09,1.09,0,0,1-.18-.88,29,29,0,0,1-.71-4.33.19.19,0,0,1-.08-.15l-.06-.22c-.05-.22-.09-.44-.13-.65a1,1,0,0,1-.11-.61.44.44,0,0,1-.16-.45c0-.18-.05-.37-.07-.55a3.15,3.15,0,0,1-.36-1.39,20.24,20.24,0,0,1-.92-3.35c-.2-.11-.21-.29-.18-.49a.08.08,0,0,1,0-.12.23.23,0,0,1-.12-.3c-.76-1.4-1-3-1.8-4.41a.3.3,0,0,1-.16-.3l-.27-.52a.31.31,0,0,1-.16-.33.13.13,0,0,1,0-.16c-.09-.09-.18-.17-.26-.26a20.31,20.31,0,0,0-1.46-2.11.76.76,0,0,1-.31-.28V167.93c0-.27.08-.51.08-.78,0-.75.15-1.49.23-2.24a32.66,32.66,0,0,1,32.47-29.74,6.4,6.4,0,0,1,.88.08c.28,0,.57.08.86.1h0l2.6-.27q2.61-.27,5.16-.48l2.55-.21h0q7.82-.57,15.15-.6,5.51,0,10.74.25,8.73.45,16.7,1.65,3.2.48,6.26,1.07,6.15,1.19,11.81,2.79,4.25,1.2,8.22,2.63,2.65.94,5.18,2,3.8,1.56,7.32,3.32a100.22,100.22,0,0,1,13,7.72c2.25,1.58,4.38,3.23,6.4,4.93,14.13,11.94,22.6,26.78,25.37,42a66.17,66.17,0,0,1-1,28.26C986.19,231.21,986,232,985.74,232.82Zm428.05,91.38a43.87,43.87,0,0,1-.38,4.48,42.16,42.16,0,0,1-.8,4.35,44.42,44.42,0,0,1-4.82,12.06,45.18,45.18,0,0,1-8,10.06,44.64,44.64,0,0,1-27.67,12.11l-163.26,11.08-15.58,1.06c-.51,0-1,.07-1.52.08l-1.53,0a44.75,44.75,0,0,1-26.6-8.8,46,46,0,0,1-4.35-3.68c-.68-.66-1.35-1.34-2-2a44.35,44.35,0,0,1-5.22-6.94c-.55-.9-1.06-1.82-1.54-2.75-.15-.29-.3-.59-.43-.89s-.28-.59-.41-.88-.34-.71-.5-1.07l-.21-.52c-.06-.18-.13-.35-.2-.53h0c-.44-1.11-.83-2.23-1.18-3.36a45.09,45.09,0,0,1-1.38-5.73c-.63.37-1.27.71-1.91,1a32.73,32.73,0,0,1-14.5,3.42c-.75,0-1.5,0-2.25-.08a32.62,32.62,0,0,1-15.13-4.93c-.81-.51-1.6-1.05-2.37-1.64l-54.66-41.36v16.34c0,.51,0,1,0,1.51a28.8,28.8,0,0,1-.28,3c-.06.49-.14,1-.23,1.45-.18,1-.41,1.91-.67,2.84s-.56,1.84-.89,2.73a33.79,33.79,0,0,1-2.08,4.48,33,33,0,0,1-13.93,13.34,32.8,32.8,0,0,1-30.25-.5,30.8,30.8,0,0,1-2.7-1.64,32.94,32.94,0,0,1-8.85-8.84c-.59-.88-1.14-1.78-1.64-2.71a31.61,31.61,0,0,1-2-4.35,32.81,32.81,0,0,1-2-11.27V142.39c0-.43.12-.84.14-1.27a31.85,31.85,0,0,1,.35-3.55c.07-.5.15-1,.23-1.48s.19-1,.3-1.46c.28-1.1.63-2.15,1-3.21.17-.48.34-1,.52-1.44s.38-.94.6-1.4.47-1,.73-1.44.52-.92.8-1.38a30.37,30.37,0,0,1,1.66-2.61c.63-.84,1.31-1.65,2-2.43s1.37-1.53,2.14-2.23c.38-.37.78-.71,1.19-1l1.25-1c.42-.32.83-.64,1.25-.94s.84-.59,1.28-.86c.9-.55,1.82-1,2.78-1.51q.74-.36,1.47-.69c.49-.22,1-.43,1.49-.63s1-.33,1.49-.48,1-.3,1.51-.43a29.14,29.14,0,0,1,3.29-.75,4.86,4.86,0,0,0,.66-.15,5,5,0,0,1,.67-.14q3.35-.4,6.64-.72t6.53-.54q6.49-.45,12.76-.57c1.44,0,2.87,0,4.29,0,7.09,0,14,.31,20.57.93,2.64.25,5.25.55,7.81.89a169.37,169.37,0,0,1,18.34,3.5q3.49.89,6.83,1.9c1.12.34,2.22.69,3.31,1a112.46,112.46,0,0,1,22.39,10.11q2.49,1.5,4.82,3.1a76.09,76.09,0,0,1,12.4,10.6l.25.26h0a41.51,41.51,0,0,1-2.5-3.89c-.52-.89-1-1.81-1.45-2.74s-.88-1.89-1.26-2.85c-.2-.49-.38-1-.56-1.47-.36-1-.68-2-1-3a43.55,43.55,0,0,1-1.29-6.29c-.14-1.07-.24-2.16-.31-3.26-.08-1.54-.09-3.07,0-4.58a44.36,44.36,0,0,1,1.28-8.82c.36-1.42.78-2.82,1.27-4.19a42.77,42.77,0,0,1,1.66-4,42.1,42.1,0,0,1,2-3.81,42.63,42.63,0,0,1,2.37-3.58c.42-.58.86-1.15,1.31-1.7a45,45,0,0,1,9.43-8.73,44.67,44.67,0,0,1,16-6.87,45.57,45.57,0,0,1,6.77-.9l11.23-.63,135.77-7.71a47.34,47.34,0,0,1,9.16.53,45.34,45.34,0,0,1,5.9,1.32,46,46,0,0,1,8.34,3.36,44.68,44.68,0,0,1,9.77,6.91,44,44,0,0,1,7.67,9.48,45.11,45.11,0,0,1,4.81,11.24,44.5,44.5,0,0,1,1.59,11.89,44.74,44.74,0,0,1-3.65,17.62,44.3,44.3,0,0,1-2.83,5.47l-94.07,155.26,93-6.3a44.84,44.84,0,0,1,4.62-.15,43.27,43.27,0,0,1,15.13,3.06c.68.27,1.34.55,2,.85,1.31.6,2.58,1.27,3.82,2,.62.36,1.23.74,1.83,1.13,1.2.78,2.36,1.62,3.48,2.51a44.92,44.92,0,0,1,16.73,32.15C1413.81,321.17,1413.84,322.69,1413.79,324.2Z"/><polygon points="770.54 109.37 770.54 109.38 770.54 109.38 770.54 109.37"/><path class="cls-3" d="M612.49,239.38c1-.4,1.25.27,1.53,1a3.47,3.47,0,0,1-.11,2.7,35.57,35.57,0,0,0-2.41,9.13c-.14,1.12-.19,2.26-.24,3.39-.07,2.06-.36,4.09-.62,6.13a9.39,9.39,0,0,0,0,1.06v12c0,3.87-.12,7.74,0,11.6.12,2.77,0,5.55.22,8.31a60.28,60.28,0,0,0,1,6.39,32.73,32.73,0,0,0,3.09,9,72.22,72.22,0,0,0,5.73,8.67,65.42,65.42,0,0,0,8.9,9.9,32.54,32.54,0,0,0,7.12,5.2,65,65,0,0,1,8.93,5.55c1.84,1.38,3.58,2.88,5.55,4.09a100.59,100.59,0,0,0,13.34,7.34c4.14,1.75,8.27,3.61,12.75,4.39,3.88.67,7.66,1.77,11.54,2.43.84.14,1.7.09,2.54.16a24.55,24.55,0,0,0,7.11.12c.51-.1.64-.29.65-.75a26.76,26.76,0,0,1,2.37-9.87c.69-1.59,1.41-3.17,2.18-4.72a8.45,8.45,0,0,1,4-3.7,23.76,23.76,0,0,1,6.72-2.3c3-.53,5.84.74,6.81,3.64.2.6.53,1.16.73,1.77s.48.42.79.08a10.11,10.11,0,0,0,1.74-3.25q2.94-7.26,6.16-14.4a32.43,32.43,0,0,1,4.5-6.93c1.4-1.73,3.05-3.2,4.59-4.77a57.83,57.83,0,0,0,4.8-5.56,8.29,8.29,0,0,1,3.89-3,1.65,1.65,0,0,1,1.14,0c3.57,1.17,7.14,2.34,10.18,4.68a17.23,17.23,0,0,0,4.53,2,26.15,26.15,0,0,1,5.3,2.89,27,27,0,0,1,4.86,3.57,5.86,5.86,0,0,1,1,1.2,19,19,0,0,0,4,4.78,10.09,10.09,0,0,1,2.47,3.32c.27.67.56.75,1.15.22a21,21,0,0,1,8.12-4.93,9.16,9.16,0,0,1,5.34,0,47.1,47.1,0,0,1,6.54,2.23c1.11.51,2.24,1,2.63,2.43.2.75.74.72,1.27.11a20.37,20.37,0,0,0,2.18-3.89c2.94-5.46,4.41-11.42,5.85-17.39.62-2.59,1.37-5.14,1.95-7.74a76,76,0,0,0,1.24-7.64c.09-.74.35-1.46.38-2.19s.45-1,1.17-1a3.11,3.11,0,0,0,.53,0,2.32,2.32,0,0,0,0-.53c-.39-3.16-.79-6.32-1.34-9.47a49.42,49.42,0,0,0-5.82-16.16,29.38,29.38,0,0,1-2.51-4.26l-.07,0-.07,0c-.07.07-.19.15-.19.23,0,.29,0,.58,0,.88h0a54.83,54.83,0,0,1-.92,6v0l-.15.92a2.17,2.17,0,0,1,0,.25c-.05.37-.1.74-.13,1.11a4.27,4.27,0,0,1-.13.95c-.5,1.55-.56,3.19-1,4.76-.36,1.4-.6,2.82-.89,4.23,1.89-.12,2.47-.38,2.58,2.46.13,3.37-.34,6.71-.48,10.07a34.42,34.42,0,0,1-1.43,8.76,55.15,55.15,0,0,1-2,6.15c-.41.94-.95,1.82-1.43,2.73a11.18,11.18,0,0,0,2.7-.36c1.15-.12,2.26-.72,3.47-.43,0,.5-.3.67-.6.87-1.17.8-2.31,1.64-3.49,2.42a23.14,23.14,0,0,1-6.93,3.39,39.39,39.39,0,0,1-5.85.8,21,21,0,0,1-7.32-.69c-4.53-1.15-8.46-3.53-12.3-6.11-3.09-2.08-6.11-4.3-9.61-5.64-3.67-1.41-7.47-2.39-11.24-3.48a9.64,9.64,0,0,0-4.08-.52,29.1,29.1,0,0,0-9.1,3.31c-5.45,2.85-10.17,6.7-14.81,10.66-3.52,3-7,6-10.73,8.78a58.61,58.61,0,0,1-14,7.92,43.33,43.33,0,0,1-13.57,2.8,31.91,31.91,0,0,1-7.6-.67A54,54,0,0,1,663,322.63a78.58,78.58,0,0,1-11.75-8.37,76.93,76.93,0,0,1-9-9.19,77.94,77.94,0,0,1-5.52-7.48,113.17,113.17,0,0,1-6.26-9.91c-.89-1.72-1.7-3.48-2.62-5.18a111,111,0,0,1-5.44-11.32A120.65,120.65,0,0,1,617,256.43a44.81,44.81,0,0,1-1.87-9.63c-.11-3.08-.53-6.13-.68-9.2,0-.18,0-.36,0-.54a9.27,9.27,0,0,1-1.68.51c-.39.45-.38,1.07-.67,1.57C612.16,239.3,612.31,239.45,612.49,239.38Z"/><path class="cls-5" d="M816.42,323.88a36,36,0,0,0,1.82-7.29c.43-2.08.75-4.18,1.16-6.26s.7-4.11,1-6.17c0-.27.06-.5.36-.57l0-.87-.07-.15.08-.05a16,16,0,0,0,.19-3.45,72.05,72.05,0,0,0-.65-12.19,3.11,3.11,0,0,1-.53,0c-.72-.06-1.13.14-1.17,1s-.29,1.45-.38,2.19A76,76,0,0,1,817,297.7c-.58,2.6-1.33,5.15-1.95,7.74-1.44,6-2.91,11.93-5.85,17.39a20.37,20.37,0,0,1-2.18,3.89c-.53.61-1.07.64-1.27-.11-.39-1.41-1.52-1.92-2.63-2.43A47.1,47.1,0,0,0,796.6,322a9.16,9.16,0,0,0-5.34,0,21,21,0,0,0-8.12,4.93c-.59.53-.88.45-1.15-.22a10.09,10.09,0,0,0-2.47-3.32,19,19,0,0,1-4-4.78,5.86,5.86,0,0,0-1-1.2,27,27,0,0,0-4.86-3.57,26.15,26.15,0,0,0-5.3-2.89,17.23,17.23,0,0,1-4.53-2c-3-2.34-6.61-3.51-10.18-4.68a1.65,1.65,0,0,0-1.14,0,8.29,8.29,0,0,0-3.89,3,57.83,57.83,0,0,1-4.8,5.56c-1.54,1.57-3.19,3-4.59,4.77a32.43,32.43,0,0,0-4.5,6.93q-3.23,7.14-6.16,14.4a10.11,10.11,0,0,1-1.74,3.25c-.31.34-.56.61-.79-.08s-.53-1.17-.73-1.77c-1-2.9-3.86-4.17-6.81-3.64a23.76,23.76,0,0,0-6.72,2.3,8.45,8.45,0,0,0-4,3.7c-.77,1.55-1.49,3.13-2.18,4.72a26.76,26.76,0,0,0-2.37,9.87c0,.46-.14.65-.65.75a24.55,24.55,0,0,1-7.11-.12c-.84-.07-1.7,0-2.54-.16-3.88-.66-7.66-1.76-11.54-2.43-4.48-.78-8.61-2.64-12.75-4.39a100.59,100.59,0,0,1-13.34-7.34c-2-1.21-3.71-2.71-5.55-4.09a65,65,0,0,0-8.93-5.55,32.54,32.54,0,0,1-7.12-5.2,65.42,65.42,0,0,1-8.9-9.9,72.22,72.22,0,0,1-5.73-8.67,32.73,32.73,0,0,1-3.09-9,60.28,60.28,0,0,1-1-6.39c-.2-2.76-.1-5.54-.22-8.31-.16-3.86,0-7.73,0-11.6v-12a9.39,9.39,0,0,1,0-1.06c.26-2,.55-4.07.62-6.13,0-1.13.1-2.27.24-3.39a35.57,35.57,0,0,1,2.41-9.13,3.47,3.47,0,0,0,.11-2.7c-.28-.7-.55-1.37-1.53-1-.18.07-.33-.08-.43-.24a3.6,3.6,0,0,0-.79,1.24,136.75,136.75,0,0,0-6.12,14.12,67.24,67.24,0,0,0-4.23,15.35c-.28,2.29-.52,4.59-.61,6.88-.12,2.88-.35,5.76-.53,8.63a42.94,42.94,0,0,0,.25,8.71,77.74,77.74,0,0,0,1.77,8.5A55.25,55.25,0,0,0,606,314.64c.82,1.57,1.86,3,2.65,4.6a59.93,59.93,0,0,0,11.4,15.68c2,2,4,3.95,6.12,5.81,2.53,2.23,5.11,4.4,7.83,6.39A114,114,0,0,0,657.55,360,194.36,194.36,0,0,0,679,367.66a60,60,0,0,0,12.35,2.42,33.49,33.49,0,0,0,11.85-1.19,98.71,98.71,0,0,0,15.23-5.38,2.25,2.25,0,0,0,1.43-2,3.57,3.57,0,0,1,.08-.74c.87-2.6,1.72-5.2,2.63-7.78,1.72-4.83,3.72-9.55,5.87-14.21a99.66,99.66,0,0,1,6.64-11.91c2.23-3.47,4.65-6.82,7-10.2a46.14,46.14,0,0,1,6.63-7.46,4.8,4.8,0,0,1,5.66-.93c.43.18.84.39,1.25.6a16.56,16.56,0,0,1,1.45.89l.15.1c.48.33.94.7,1.39,1.07l.19.16c.44.38.88.78,1.3,1.19l.14.13c.41.4.81.8,1.2,1.21l.07.08c1.68,1.74,3.24,3.58,4.75,5.48h0c.09.11.16.23.25.34a43.16,43.16,0,0,1,5.15,8.47c.2.42.41.84.59,1.27,2.78,6.58,5.3,13.26,6.56,20.34a.24.24,0,0,0,0,.09.66.66,0,0,0,.6.56c1.38.32,2.72.74,4.08,1.13a13.93,13.93,0,0,0,6.42.29,74.92,74.92,0,0,0,8-1.92,17.66,17.66,0,0,0,7.54-4.14,32.9,32.9,0,0,0,6.08-8.79,70.25,70.25,0,0,0,5-11.83A.86.86,0,0,1,816.42,323.88Zm-115.8,36.57a7.1,7.1,0,0,0,1.13-3.12c.58-4.3,2.69-7.84,5.28-11.15a12,12,0,0,1,6.34-4.6,7.63,7.63,0,0,1,3.59-.36c2.61.54,3.6,1.68,3.65,4.41-.35,5.55-1.82,10.74-5.52,15a17,17,0,0,1-8.67,5.85,4.77,4.77,0,0,1-4.45-1.38,7.72,7.72,0,0,1-1.09-1.43A2.66,2.66,0,0,1,700.62,360.45Zm84.47-29.37a13.49,13.49,0,0,1,8.32-4.84c5-.79,9.49,2,9.53,7.65a16.9,16.9,0,0,1-4.79,11.94,11.75,11.75,0,0,1-6.54,3.92,2.73,2.73,0,0,1-2.13-.39c-2-1.31-4.05-2.48-5.56-4.32a9.17,9.17,0,0,1-2.22-6.33A12.54,12.54,0,0,1,785.09,331.08Z"/><path class="cls-5" d="M775.83,348.48a65.39,65.39,0,0,0-4.64-11c-3.31-6.65-7.05-13-12.54-18.17a52.61,52.61,0,0,0-6.92-5.62l-.15-.07a1,1,0,0,0-.76-.06l-.26.08a6.74,6.74,0,0,0-1.78,1l-.16.13a17.17,17.17,0,0,0-2.17,2.26c-2,2.36-3.92,4.8-5.76,7.3-.71,1-1.42,1.94-2.12,2.92-.47.67-1,1.34-1.41,2s-.76,1.14-1.14,1.71a93,93,0,0,0-5.66,9.9c-.2.41-.41.81-.6,1.22-2.55,5.34-4.8,10.81-6.86,16.36-.32.85-.61,1.71-.91,2.57-.18.53-.37,1.07-.55,1.61-.25.76-.51,1.53-.77,2.29-.1.3-.35.72.19.88,1.79.52,3.43,1.42,5.29,1.79,3,.61,6,1.52,9,1.9a75.62,75.62,0,0,0,11.05.58,30.4,30.4,0,0,0,6.94-.65,45.71,45.71,0,0,0,24.28-12.54,1,1,0,0,0,.31-1C777.24,353.36,776.53,350.92,775.83,348.48ZM760.41,335.2c-.06-3-.45-6-.76-8.94a20.54,20.54,0,0,1-.22-2.09.69.69,0,0,1,.58-.76c.46-.12.64.14.77.52a34.56,34.56,0,0,1,1.09,4.49A64.55,64.55,0,0,1,763,338c.06,0,.17,0,.19.08.75,1.64,1.75,3.2,1.43,5.17s-.68,4.17-1.06,6.25a3.26,3.26,0,0,1-2.11,2.6c-.57,2.51-1.18,5-1.85,7.47-.27,1-.56,2-.81,3.05a2.64,2.64,0,0,1-.2.6c-.46.9-1,1-1.7.3s-1.45-1.43-.94-2.83a81.51,81.51,0,0,0,2.61-8.76c.42-1.71.74-3.45,1.06-5.18a49,49,0,0,0,.71-5.37C760.43,339.34,760.45,337.27,760.41,335.2Zm6.06,24a3.2,3.2,0,0,1-2,2.28c-.5.18-.8.12-1-.4a7.38,7.38,0,0,1-.62-2.85,12.94,12.94,0,0,1,.86-3.37c.51-1.83.92-3.69,1.38-5.53.66-2.67.75-5.41,1.16-8.11a18.76,18.76,0,0,0,0-3.18,2.91,2.91,0,0,1,.11-1.36,1.27,1.27,0,0,1,1.25-.67c.57,0,.76.44.9.9a19.48,19.48,0,0,1,.68,4.93,45.7,45.7,0,0,1-.78,9.27,41.39,41.39,0,0,1-1.14,5.14C767,357.22,766.77,358.22,766.47,359.19Zm-15.23-43c.28,0,.43.11.57.37A15.4,15.4,0,0,1,753,320c.67,2.43.92,4.95,1.49,7.4a2,2,0,0,1,.77-1.77c.57-.45,1-.36,1.14.33a3,3,0,0,1,0,.74c0,3.78.08,7.56,0,11.34a39.23,39.23,0,0,1-.86,7.15c-.08.38-.26-.14-.43-.1a7.34,7.34,0,0,0-.32,2.62c0,1.29-.22,2.55-.24,3.82,0,2-.25,4-.45,5.95a40,40,0,0,1-1,5.85c-.22.85-.43,1.69-.71,2.52-.38,1.16-.76,1.49-1.44,1.36a2.27,2.27,0,0,1-1.51-2.07,11.15,11.15,0,0,1,.42-2,48.12,48.12,0,0,0,1.69-10c.38-3.79.81-7.58,1.19-11.36a65.71,65.71,0,0,0,.24-8.06c-.08-3.83-.63-7.6-1.06-11.4-.17-1.56-.54-3.1-.86-4.64a3.38,3.38,0,0,1-.15-.82C750.92,316.54,750.92,316.27,751.24,316.21Zm-6.51,51.68c-.52.44-.71.23-.87-.31a11.21,11.21,0,0,1-.4-5.11c1-6,1.44-12.07,2-18.12a47.51,47.51,0,0,0,0-7.73,109,109,0,0,0-1.55-10.81,3.8,3.8,0,0,1,.06-1.06c0-.42.32-.58.73-.62s.55.16.69.49a26.85,26.85,0,0,1,1.25,4c.41,1.64.8,3.27,1.2,4.91.93-.7,1.5-1.78,2.65-2.52-.08,1.49.17,2.83.2,4.19.05,2.31.11,4.62,0,6.93a47,47,0,0,1-1.31,10.07c-.28,1-.52,2.05-.83,3.07-.09.31-.08.72-.48.89-.18,1.62-.41,3.24-.55,4.86a27.8,27.8,0,0,1-1,4.54A4.69,4.69,0,0,1,744.73,367.89Zm-9.3-19.76c0-1.26,0-2.53-.16-3.79a64.77,64.77,0,0,0-.79-6.63c-.13-.72.51-.86,1-1.06s.88,0,1.1.49a18.66,18.66,0,0,1,1.08,4.48,27.49,27.49,0,0,1,.49,4.15.34.34,0,0,0,.07.18l.11.19a.74.74,0,0,0,.31-.14,2.59,2.59,0,0,0,.53-.76c1.23-1.78,2.43-3.57,3.65-5.35a1.32,1.32,0,0,1,.72-.65c.2.29.1.61.1.91a88.74,88.74,0,0,1-.21,8.93,37.55,37.55,0,0,1-2.84,12.12,1.12,1.12,0,0,1-1,.79,8.14,8.14,0,0,1-2.36.19,5.2,5.2,0,0,1-2.11,2.43c-.57.34-.82.24-.93-.42a15,15,0,0,1,.34-5.63,25.06,25.06,0,0,0,.83-6.63C735.26,350.68,735.48,349.4,735.43,348.13Zm-2.18,5.74a8.63,8.63,0,0,1,.27,4.06,13.21,13.21,0,0,1-.79,4.15,1,1,0,0,1-1.09.75,18.26,18.26,0,0,1-2.86-.21c-.81-.15-1-.36-.54-1.11.84-1.44,1.67-2.88,2.57-4.28A24.15,24.15,0,0,1,733.25,353.87Z"/><path class="cls-6" d="M820.39,304.16c-.29,2.06-.59,4.12-1,6.17s-.73,4.18-1.16,6.26a36,36,0,0,1-1.82,7.29.86.86,0,0,0,.16,1.08,53.74,53.74,0,0,0,2.51-9c.54-2.5.9-5,1.26-7.56.22-1.58.27-3.17.4-4.76C820.45,303.66,820.42,303.89,820.39,304.16Z"/><path class="cls-5" d="M763.49,371c.26.11.19-.11.23-.22C763.59,370.75,763.46,370.77,763.49,371Z"/><path class="cls-6" d="M820.79,302.72a.23.23,0,0,0,0-.2l-.08.05Z"/><path class="cls-3" d="M765.25,278.76a7.29,7.29,0,0,0,1.63,7.5,21.73,21.73,0,0,0,2.46,2.63c2.47,2.08,5.44,2.75,8.47,3.35a82.83,82.83,0,0,1,8.32,2.2,97.8,97.8,0,0,0,11.19,2.91,1.19,1.19,0,0,0,1.45-.73c1.07-2.09,2-4.26,3.21-6.26.16-.26.2-.62.59-.69a18.1,18.1,0,0,1,.36-1.78,30.29,30.29,0,0,0,.73-3.63c.26-1.69.6-3.36.93-5,.53-2.67,1-5.35,1.48-8,.34-1.88.74-3.76,1-5.66a82.13,82.13,0,0,0,1-8.73,17.33,17.33,0,0,1,.2-3,49,49,0,0,0,.77-7.33c.14-4.3.09-8.61.25-12.91.09-2.5,0-5,0-7.49a16.72,16.72,0,0,0,0-2.24c-.36-2.52-.11-5.08-.6-7.6-.24-1.26-.38-2.56-.69-3.82A4.22,4.22,0,0,1,806,212a30,30,0,0,1-5.26-2.76A14.44,14.44,0,0,1,799.3,208a22.73,22.73,0,0,0-4.56-2.68c-3-1.56-6-3.08-9-4.6-1.23-.62-2.5-1.19-3.75-1.76a2.72,2.72,0,0,0-1.42-.37h0c1.07,1.09,2.13,2.18,3.21,3.26a30.28,30.28,0,0,1,6,9.45,78.58,78.58,0,0,1,4.28,14.55c.24,1,.5,2.1.79,3.13a5.38,5.38,0,0,1-1.58,4.87,1.19,1.19,0,0,0-.53.7,5,5,0,0,1-3.5,2.74.89.89,0,0,1-.8-.41,17.6,17.6,0,0,1-1.67-2.79,3.84,3.84,0,0,1-.23-1.09c-.46.17-.93.35-1.4.5a1.33,1.33,0,0,1-1.66-.58c-.41-.71-.87-1.38-1.3-2.07-.68-1.12-.48-2.41-.72-3.62-.2-1-.28-2-.4-3a2.35,2.35,0,0,1,0-.95c.52-1.89-.06-3.66-.56-5.43a55.36,55.36,0,0,0-2.28-6.76c-1-2.23-1.8-4.57-3.59-6.32-1.54-1.5-3.1-3-5.53-3a4.62,4.62,0,0,0-3.57,1.83,37.7,37.7,0,0,0-4.69,7.43,54.7,54.7,0,0,0-4.23,11.78,28.72,28.72,0,0,0-1,8.3c0,.44.2,1.09-.41,1.17s-.72-.53-.87-1a11.58,11.58,0,0,1-.49-3.25,1.08,1.08,0,0,0-.16-.39,6.67,6.67,0,0,0-.34,3.15.86.86,0,0,1-.44,1.1c-.59.23-.58-.38-.77-.73a2.08,2.08,0,0,1-.15-1,57.84,57.84,0,0,1,.61-8.52,91.71,91.71,0,0,1,2.18-12.11c1.12-4.32,2.41-8.6,4.89-12.4,1.18-1.82,2.54-3.46,4.72-4.14-.28-.65-.93-.42-1.39-.54a85.07,85.07,0,0,0-9.46-1.88c-2.13-.31-4.27-.54-6.42-.77-2.78-.29-5.57-.42-8.36-.54a58.66,58.66,0,0,0-9.37.11,31.74,31.74,0,0,1-3.52,0,16.44,16.44,0,0,0,2.33,2.16A39.4,39.4,0,0,1,737,205.66a67.26,67.26,0,0,1,3.17,11.64c.49,2.5.82,5,1.16,7.58a21.24,21.24,0,0,0,.32,2.18,4.54,4.54,0,0,1-.78,3.18,14.86,14.86,0,0,1-2.9,3.62c-1,1-1.82.78-2.67-.3-1.15-1.44-1.31-3.17-1.76-4.83a4.48,4.48,0,0,1-1.22-2.58c-.85-3.07-1.21-6.25-1.93-9.35a54.77,54.77,0,0,0-4-11.53,22.54,22.54,0,0,0-4.18-6.46,7.31,7.31,0,0,0-7.95-1.6c-3.05,1-4.68,3.28-5.89,6a44.69,44.69,0,0,0-3,11.37,34.28,34.28,0,0,0-.43,4.86,13.92,13.92,0,0,0,.72,4.92c.43,1.2,0,2-1.1,2.18-.67.14-.91-.48-1.39-.65,0,0-.09,0-.11,0-1.15,1.25-1.58,1.2-2.3-.39a15.29,15.29,0,0,1-.92-3.83,36.85,36.85,0,0,1-.23-5.94A45.07,45.07,0,0,1,702,201.4a34.31,34.31,0,0,1,4.85-9.65,5.45,5.45,0,0,0-2.66.29,45.19,45.19,0,0,0-6,1.61c-4.1,1.32-8.15,2.74-12.16,4.29-2.71,1.05-5.37,2.22-8,3.4-3,1.34-6,2.83-8.84,4.41-2,1.08-4,2.22-5.88,3.4-3.84,2.37-7.61,4.83-11.29,7.42-3.94,2.78-7.8,5.66-11.56,8.7a116,116,0,0,0-9,8.25,1.72,1.72,0,0,0-.53,1.9c1.37,4.77,2,9.72,3.54,14.45a90.76,90.76,0,0,0,4.32,12.24c1.32,2.76,2.88,5.38,4.27,8.09.72,1.42,1.25,2.94,2,4.34a67.87,67.87,0,0,0,4.66,7.85,28.63,28.63,0,0,0,3.4,4.08c1.3,1.21,2.37,2.64,3.66,3.87a5.16,5.16,0,0,0,5.78,1c1.94-.82,3-2.44,4-4.14.82-1.41,1.83-2.71,2.55-4.18a.68.68,0,0,1,.58-.42,59.82,59.82,0,0,1,2.18-8.21,47.79,47.79,0,0,1,9.06-16.51A30.8,30.8,0,0,1,693,249a19.71,19.71,0,0,1,10.14-1.31,17.57,17.57,0,0,1,7.39,3.14,43.88,43.88,0,0,1,6.37,5.73,123,123,0,0,0,9.5,9.33,39.42,39.42,0,0,0,10.11,6.16,30.33,30.33,0,0,0,10.47,2.18,26.61,26.61,0,0,0,6-.62,48.8,48.8,0,0,0,12.5-4.56c1-.48,1.51-1,1.32-2.17a.78.78,0,0,1,1-1,1.52,1.52,0,0,0,.51-.09,2.48,2.48,0,0,1,3.14,3,7.1,7.1,0,0,1-3.57,4.75,5.37,5.37,0,0,1-1,2A19.59,19.59,0,0,0,765.25,278.76Zm28.22-41.66c-.17-1.58.31-2.56,2.14-2.58a8,8,0,0,1,4.86.22,9.42,9.42,0,0,1,7.23,3.66c.42.52.31,1-.39,1.2a13.16,13.16,0,0,1-2.07.45,3.12,3.12,0,0,0-.91.23,4.19,4.19,0,0,1,1,1.68c.09.41.17.72-.16,1s-.57.16-.93.12a4.16,4.16,0,0,1-2.46-1.47,12.64,12.64,0,0,0-6.2-3.65,14.39,14.39,0,0,0-2-.29C792.86,237.64,793.38,237.33,793.47,237.1Zm-108.35,9.83a14.56,14.56,0,0,1-2.13,3.19c-.12.13-.23.27-.34.4a5.15,5.15,0,0,1-1.62,4.79c-2.88,2.62-5,5.86-7.14,9.08a44.36,44.36,0,0,0-3.33,5.43,27.56,27.56,0,0,0-1.79,6.1c-.17.83-.29,1.67-.49,2.49-.09.34-.12.85-.69.78a1,1,0,0,1-.94-1c0-.6,0-1.21,0-1.81a2.18,2.18,0,0,1-.2-1.74A39.79,39.79,0,0,1,674.32,256a62.86,62.86,0,0,1,6.68-7.53,8.29,8.29,0,0,1,3.71-2c.15,0,.28-.29.45-.09S685.23,246.73,685.12,246.93Zm13-21.19a.88.88,0,0,1-.62.55c-2.88.88-5.23,2.71-7.66,4.38a16.87,16.87,0,0,1-1.93,1.12c-.26-1,.71-1.43.8-2.19-1.6,1-3.27,1.85-4.81,2.93-.28.19-.55.57-.92.3s-.24-.58-.19-1a15.78,15.78,0,0,1,.93-4.23,7.11,7.11,0,0,1,3.4-3.8,13.33,13.33,0,0,1,6.34-1.52c1.69,0,3.42-.18,5,.61.07,0,.15,0,.21.06.6.39,1.25.79,1.21,1.6S699.07,225.71,698.11,225.74Z"/><path class="cls-3" d="M620.43,218.82a123.33,123.33,0,0,1,4.16-16,35.67,35.67,0,0,1,3.52-7.28c1.82-2.87,3.71-5.7,5.75-8.43a21.39,21.39,0,0,1,3.46-3.59c.52-.42.68-.13.81.29a1.47,1.47,0,0,1,0,.95,3.89,3.89,0,0,0-.15,1.47,25.53,25.53,0,0,0,3.82-3.37c2.27-2.2,4.7-4.23,6.94-6.45a6.41,6.41,0,0,1,3.35-1.68,1.67,1.67,0,0,1,1.93,1.49,10.19,10.19,0,0,1-.22,2c-.21,1.66-.51,3.31-.76,5a21.59,21.59,0,0,0-.52,3.58c.31-.16.57-.27.8-.41a150.63,150.63,0,0,1,20.3-10.8,154.17,154.17,0,0,1,23.25-8.28,125.42,125.42,0,0,1,12.55-2.63c2.11-.32,4.26-.49,6.39-.73,2.85-.32,5.71-.36,8.57-.56,3.76-.27,7.53.19,11.3.18a1.72,1.72,0,0,1,.32,0c2.19.37,4.42.34,6.63.59,1.57.17,3.16.29,4.72.51,2.45.35,4.89.73,7.32,1.21,3.43.68,6.82,1.51,10.17,2.52a134.82,134.82,0,0,1,14.78,5.55c5.7,2.49,11.45,4.87,17,7.76.33.17.66.51,1.14.39a1,1,0,0,0-.17-.61c-1.12-2.12-2.23-4.25-3.51-6.28a69.54,69.54,0,0,0-8.42-11.48c-1.8-1.86-3.52-3.78-5.48-5.49-2.33-2.05-4.73-4-7.25-5.81a82.19,82.19,0,0,0-13.69-7.63,96,96,0,0,0-16.33-5.86c-3.75-1-7.54-1.75-11.33-2.52-2.13-.43-4.28-.79-6.43-1.08-1.91-.26-3.84-.48-5.76-.72-2.35-.29-4.72-.41-7.07-.53a88.85,88.85,0,0,0-11.06.34c-1.72.12-3.45.31-5.15.52a78,78,0,0,0-7.71,1.42A92,92,0,0,0,669.29,143a79.69,79.69,0,0,0-12,7.16,92,92,0,0,0-11.25,9.51,86.13,86.13,0,0,0-6.8,7.6,87.34,87.34,0,0,0-6.87,10.08,100.36,100.36,0,0,0-6.43,13,103.3,103.3,0,0,0-3.83,11.37c-1,3.61-1.73,7.27-2.51,10.92-.38,1.8-.62,3.63-.89,5.45-.22,1.48-.4,3-.6,4.45C619.61,221.73,620.1,220.36,620.43,218.82Z"/><path class="cls-5" d="M669,283c-.72,1.47-1.73,2.77-2.55,4.18-1,1.7-2,3.32-4,4.14a5.16,5.16,0,0,1-5.78-1c-1.29-1.23-2.36-2.66-3.66-3.87a28.63,28.63,0,0,1-3.4-4.08,67.87,67.87,0,0,1-4.66-7.85c-.77-1.4-1.3-2.92-2-4.34-1.39-2.71-3-5.33-4.27-8.09a90.76,90.76,0,0,1-4.32-12.24c-1.52-4.73-2.17-9.68-3.54-14.45a1.72,1.72,0,0,1,.53-1.9,116,116,0,0,1,9-8.25c3.76-3,7.62-5.92,11.56-8.7,3.68-2.59,7.45-5,11.29-7.42,1.93-1.18,3.9-2.32,5.88-3.4,2.89-1.58,5.82-3.07,8.84-4.41,2.65-1.18,5.31-2.35,8-3.4,4-1.55,8.06-3,12.16-4.29a45.19,45.19,0,0,1,6-1.61,5.45,5.45,0,0,1,2.66-.29c1.73-2.27,3.67-4.27,6.51-5.19a9.58,9.58,0,0,1,4.45-.23,22.88,22.88,0,0,1,3.57.66A13.16,13.16,0,0,1,725,188.9a4.35,4.35,0,0,0,.8.48,31.74,31.74,0,0,0,3.52,0,58.66,58.66,0,0,1,9.37-.11c2.79.12,5.58.25,8.36.54,2.15.23,4.29.46,6.42.77a85.07,85.07,0,0,1,9.46,1.88c.46.12,1.11-.11,1.39.54a13.23,13.23,0,0,1,8.59.82,24.31,24.31,0,0,1,6.63,4.07,8.28,8.28,0,0,0,.79.52l.23.23A2.72,2.72,0,0,1,782,199c1.25.57,2.52,1.14,3.75,1.76,3,1.52,6,3,9,4.6A22.73,22.73,0,0,1,799.3,208a14.44,14.44,0,0,0,1.48,1.21A30,30,0,0,0,806,212a4.22,4.22,0,0,0,1.92.5,24.36,24.36,0,0,0-1.21-6.93c-.55-2-1.3-3.93-1.81-5.94-.24-1-.63-2-1.9-2.24a3.39,3.39,0,0,1-.84-.4c-4.71-2.35-9.47-4.58-14.33-6.6A170.81,170.81,0,0,0,766.44,183a141.08,141.08,0,0,0-14.54-3c-2.88-.45-5.78-.81-8.68-1.06s-5.74-.37-8.62-.44c-2.06,0-4.12,0-6.18.14-3.11.15-6.21.35-9.31.67-2.24.23-4.46.55-6.67.92a118.19,118.19,0,0,0-13,3,148.39,148.39,0,0,0-21.93,8.49,166.63,166.63,0,0,0-16.19,8.94C652,206.54,643,212.86,634.92,220.5a72.21,72.21,0,0,0-8.45,9.63,90.32,90.32,0,0,0-7.73,13.47,2.5,2.5,0,0,0-.19,1.65c.43,2.05.87,4.11,1.3,6.16a72.9,72.9,0,0,0,3.59,12.16c1.2,3,2.56,6,3.74,9a44.85,44.85,0,0,0,4.09,8.31c1.62,2.47,3,5.06,4.6,7.57,1.86,3,3.72,5.95,5.78,8.8,1.72,2.37,3.57,4.64,5.4,6.92a35.22,35.22,0,0,0,3.53,4,75.9,75.9,0,0,0,8,6.36A58.85,58.85,0,0,0,676,322.94a8,8,0,0,0,2.35.5,43.55,43.55,0,0,1-5.8-8.81,49.94,49.94,0,0,1-3.45-9.92c-.76,1.11-1.76,1.9-1.91,3.22a.73.73,0,0,1-.5.51,4.34,4.34,0,0,1-2.17-.2c-1.61-.61-2.42-2.07-3.45-3.29-.56-.67-1.14-1.35-1.64-2.06-.73-1.05-.34-2.29-.23-3.46a.89.89,0,0,1,.54-.61c.76-.16,1.17-.78,1.69-1.22.87-.73,1.89-1.2,2.76-1.93a31.55,31.55,0,0,1,3.91-3.2c.37-.22.52-.43.34-.84a2.13,2.13,0,0,1,.07-1.64c.09-.25.35-.49.21-.79-.42-.91,0-1.79.12-2.66.12-1.32.59-2.6.71-3.93A.68.68,0,0,0,669,283Z"/><path class="cls-3" d="M751.86,285.23c-.92-.37-1.93-.48-2.86-.8-.61-.21-1.12.12-1.68.13-1.29.05-2.56-.29-3.82-.2-2.67.19-5.34,0-8,.23-3.37.26-6.74.23-10.1.44-3.21.19-6.41,0-9.6.18s-6.31.28-9.46.46c-1.57.09-3.13,0-4.68.18-2.29.23-4.59.27-6.88.54a42.66,42.66,0,0,1-5.29.51c-.4,0-.83,0-1.07.34-.61,1-1.68,1.49-2.49,2.27a85.07,85.07,0,0,0-9.05,11c-.73,1-1.33,2.09-2,3.1a4.81,4.81,0,0,0-.49,3.41,30.82,30.82,0,0,0,1.64,7.46,23.23,23.23,0,0,0,5.52,9.23,1.19,1.19,0,0,1,.51,1c1.57,0,3.14,0,4.7,0a22.55,22.55,0,0,0,8.41-1.42c1.61-.54,3.11-1.32,4.73-1.84a31.34,31.34,0,0,0,11.56-6.76c1.22-1.11,2.45-2.22,3.76-3.25a58.3,58.3,0,0,0,6.65-5.5A49.85,49.85,0,0,1,726.6,302c1.66-1.36,3.54-2.36,5.23-3.65a32.26,32.26,0,0,1,13.37-6.45c2.72-.54,5.46-1,8.21-.14.33.09.63.11.71-.46a34.48,34.48,0,0,0,.61-6.16A3.62,3.62,0,0,1,751.86,285.23Z"/><path class="cls-7" d="M747.22,129a24.72,24.72,0,0,1,4.57,1.66,46.34,46.34,0,0,1,8.15,3.93,22.69,22.69,0,0,0,4.38,2.19c.82.31.92.26.89-.64a34.68,34.68,0,0,1,.48-7,104.65,104.65,0,0,0,1.2-11.29c.15-2.79.14-5.59.44-8.39.26-2.31.53-4.63.72-7,.18-2.15.47-4.29.61-6.44.06-.88.15-1.77.24-2.64.23-2.15.55-4.28.8-6.42s.44-4,.69-6c.28-2.29.49-4.58.6-6.87a3.39,3.39,0,0,1,0-.64A2.19,2.19,0,0,0,769.72,71c-1.23-.72-2.41-1.51-3.58-2.3A24.44,24.44,0,0,0,763.82,67c-3-1.55-6-3.12-9.13-4.39a7.45,7.45,0,0,0-2.85-.28c-.35,0-.45.19-.53.52-.17.7-.12,1.42-.24,2.11-.49,2.61-.51,5.27-.79,7.91-.22,2.08-.53,4.14-.81,6.2-.31,2.35-.69,4.69-.91,7.05-.17,1.86-.09,3.75-.19,5.63-.16,3.12,0,6.26-.25,9.38-.1,1.34-.13,2.7-.16,4-.08,3.2-.52,6.37-.47,9.57,0,1.89-.21,3.75-.29,5.63,0,1-.09,2-.21,3a47.25,47.25,0,0,0-.38,4.75C746.59,128.59,746.76,128.86,747.22,129Zm7.49-28.49a18.79,18.79,0,0,0-.19,3.82c-.27,4.3-.23,8.6-.2,12.9,0,2.44.4,4.86.47,7.31a10.12,10.12,0,0,1,0,1.24c0,.52-.15,1-.8,1.07-.46,0-1.15-.76-1.09-1.29.4-3.26,0-6.54.2-9.8a28.17,28.17,0,0,0,.17-3.41c.24-2.44.33-5.24.61-8a26.91,26.91,0,0,0,.28-3.81c0-.29-.09-.75.35-.72S754.79,100.21,754.71,100.46Zm-4.53,16.09a9.17,9.17,0,0,0,.06-1.17,48.13,48.13,0,0,1,.28-5.1c.18-2.37.09-4.75.31-6.17.17-4.28.38-7.6.53-10.94.1-2.15.19-4.31.4-6.46a53.49,53.49,0,0,1,1.44-10.07,1.86,1.86,0,0,1,.92-1.34c.14-.07.32,0,.35.12a2.8,2.8,0,0,1-.23,1.62,11.73,11.73,0,0,0-.76,3.94c-.22,2.69-.39,5.37-.51,8.07-.09,1.92,0,3.84-.18,5.74-.28,2.49,0,5-.23,7.46-.21,2.21,0,4.41-.18,6.6-.24,3.76-.3,7.52-.47,11.28a15.77,15.77,0,0,1-.39,3.68c-.11.37-.16.85-.63.9a1,1,0,0,1-.86-.54,1.93,1.93,0,0,1-.43-1.28C749.81,120.78,750,118.66,750.18,116.55Z"/><path class="cls-3" d="M719.46,271c-2.52-2.34-5.1-4.61-7.71-6.86a67.72,67.72,0,0,0-8.62-6.74,2.64,2.64,0,0,0-2-.36,24,24,0,0,0-10.81,5.4,50.47,50.47,0,0,0-9.57,10.9,22.65,22.65,0,0,0-1.88,4.17c-.87,2.09-1.68,4.21-2.62,6.27-.3.66-.28,1.39-.61,2a6,6,0,0,0,.85,0c1.92-.33,3.83-.68,5.75-1,1.54-.27,3.08-.59,4.63-.8,1.21-.16,2.4-.58,3.58-.64,2.81-.16,5.58-.68,8.37-1,2.29-.23,4.59-.49,6.88-.77,2.51-.31,5.05-.47,7.58-.63s5.15-.38,7.73-.43c4-.08,8-.41,11.93-.25.28,0,.57,0,.85,0a54.91,54.91,0,0,1-7.71-4A58.84,58.84,0,0,1,719.46,271Z"/><path class="cls-5" d="M807.79,297.06a34.42,34.42,0,0,0,1.43-8.76c.14-3.36.61-6.7.48-10.07-.11-2.84-.69-2.58-2.58-2.46-.4,1.9-.81,3.79-1.21,5.68-.36,1.68-.67,3.38-1.06,5.06-.54,2.33-1.17,4.64-1.7,7a51.3,51.3,0,0,1-2.5,8.25,6.24,6.24,0,0,1-2.25,3c-.22.14-.46.49-.85.14a13.25,13.25,0,0,0,2.3-4c.33-1.15.67-2.29,1-3.45.67-2.57,1.17-5.17,1.75-7.75-.39.07-.43.43-.59.69-1.24,2-2.14,4.17-3.21,6.26a1.19,1.19,0,0,1-1.45.73,97.8,97.8,0,0,1-11.19-2.91,82.83,82.83,0,0,0-8.32-2.2c-3-.6-6-1.27-8.47-3.35a21.73,21.73,0,0,1-2.46-2.63,7.29,7.29,0,0,1-1.63-7.5,19.59,19.59,0,0,1,1.51-3.17,5.37,5.37,0,0,0,1-2,68,68,0,0,1-10,3.51c-1,.25-1.08.36-.8,1.4a32.82,32.82,0,0,1,.93,5.55,53.4,53.4,0,0,1-.26,8c0,.48,0,.6.43.72.75.21,1.47.5,2.22.7a44.1,44.1,0,0,1,14.06,6.61,52.1,52.1,0,0,0,9.75,5.6,22.52,22.52,0,0,0,8.63,1.82,36.77,36.77,0,0,0,7.47-.83,41.78,41.78,0,0,0,4.14-.75c.48-.91,1-1.79,1.43-2.73A55.15,55.15,0,0,0,807.79,297.06Z"/><path class="cls-5" d="M672.47,286.46a14.71,14.71,0,0,0,3.15-.66c.33-.63.31-1.36.61-2,.94-2.06,1.75-4.18,2.62-6.27a22.65,22.65,0,0,1,1.88-4.17,50.47,50.47,0,0,1,9.57-10.9,24,24,0,0,1,10.81-5.4,2.64,2.64,0,0,1,2,.36,67.72,67.72,0,0,1,8.62,6.74c2.61,2.25,5.19,4.52,7.71,6.86a58.84,58.84,0,0,0,6.6,5.19,54.91,54.91,0,0,0,7.71,4c4.19,0,8.37.13,12.54.48,1.46.12,2.91.4,4.37.55a20.79,20.79,0,0,0,3.25.31c.47,0,.63-.14.6-.61a17.1,17.1,0,0,0-.4-2.58c-.09-.43-.2-.57-.6-.42a8.16,8.16,0,0,1-2.58.35,39.85,39.85,0,0,1-7.71-.36,35.53,35.53,0,0,1-9.48-2.95,42.84,42.84,0,0,1-10.53-7.35,108.08,108.08,0,0,1-8-8.26,36.72,36.72,0,0,0-6.44-6,14.1,14.1,0,0,0-9-2.88,16.4,16.4,0,0,0-4.7,1,31.1,31.1,0,0,0-15,11.69,49.13,49.13,0,0,0-5.22,9.78,58.75,58.75,0,0,0-3.52,12.25C671.09,286.62,671.13,286.67,672.47,286.46Z"/><path class="cls-5" d="M672.78,311a43.83,43.83,0,0,0,6.86,11.92c.62.78,1.1,1.88,2.39,1.85a1.19,1.19,0,0,0-.51-1,23.23,23.23,0,0,1-5.52-9.23,30.82,30.82,0,0,1-1.64-7.46,4.81,4.81,0,0,1,.49-3.41c.71-1,1.31-2.1,2-3.1a85.07,85.07,0,0,1,9.05-11c.81-.78,1.88-1.27,2.49-2.27.24-.38.67-.35,1.07-.34a42.66,42.66,0,0,0,5.29-.51c2.29-.27,4.59-.31,6.88-.54,1.55-.16,3.11-.09,4.68-.18,3.15-.18,6.3-.28,9.46-.46s6.39,0,9.6-.18c3.36-.21,6.73-.18,10.1-.44,2.65-.21,5.32,0,8-.23,1.26-.09,2.53.25,3.82.2.56,0,1.07-.34,1.68-.13.93.32,1.94.43,2.86.8a3.62,3.62,0,0,0,2.87-.05l.06,0,0-.06c0-.12,0-.23,0-.35h0c-.51,0-1,.07-1.53,0a2.63,2.63,0,0,1-.49-.06,84.24,84.24,0,0,0-9.86-1.43c-3-.27-5.94-.4-8.91-.44-5.16-.05-10.32-.09-15.48.2l-3.6.16c-2.68.13-5.36.32-8,.44-1.31.06-2.61.25-3.92.3a15.19,15.19,0,0,0-2.52.19c-1.68.33-3.39.38-5.09.58-1.49.17-3,.43-4.48.51-.37,0-1-.07-1.24.33a3.78,3.78,0,0,1-1.3,1.19A119.85,119.85,0,0,0,677.37,296a87.77,87.77,0,0,0-6.35,6.3c-.19.22-.39.41-.32.73A54.21,54.21,0,0,0,672.78,311Z"/><path class="cls-8" d="M665.57,297.44a20.34,20.34,0,0,0-2.31,2.51c-.2.3-.29.48,0,.8a43.9,43.9,0,0,1,3.36,4.29c5-7.28,11.31-13.23,18.18-18.71a15.45,15.45,0,0,0-3.85.88,31.16,31.16,0,0,0-3.68,1.55A42.62,42.62,0,0,0,665.57,297.44Z"/><path class="cls-5" d="M618.53,226.82a47.87,47.87,0,0,1,5-11.84c.72-1.28,1.77-2.42,2-4a17.37,17.37,0,0,1,.35-1.86,83.87,83.87,0,0,1,4.58-14.47,14.81,14.81,0,0,1,4.56-5.78,19,19,0,0,0,3-2.68,3.89,3.89,0,0,1,.15-1.47,1.47,1.47,0,0,0,0-.95c-.13-.42-.29-.71-.81-.29a21.39,21.39,0,0,0-3.46,3.59c-2,2.73-3.93,5.56-5.75,8.43a35.67,35.67,0,0,0-3.52,7.28,123.33,123.33,0,0,0-4.16,16c-.33,1.54-.82,2.91-2.3,3.7-.16,1.67-.33,3.34-.5,5.06C618.12,227.47,618.4,227.35,618.53,226.82Z"/><path class="cls-7" d="M728.63,117.65c.34-2,.76-3.89,1.14-5.83a142.28,142.28,0,0,0,2.34-17.45c.06-1,.07-1.91.21-2.85.33-2.21.42-4.44.57-6.66.1-1.63.21-3.26.31-4.89a32.69,32.69,0,0,1,.21-3.71,41.38,41.38,0,0,0,.15-5.22c0-.41-.21-.55-.6-.57-.82,0-1.21.39-1.31,1.56-.16,1.9-.24,3.81-.46,5.71-.1.92-.15,1.84-.23,2.76-.18,2.11-.42,4.22-.59,6.33s-.21,4.11-.47,6.14c-.36,2.78-.51,5.57-.79,8.35-.2,2-.36,4-.42,6-.09,2.94-.47,5.87-.45,8.81,0,.7-.49,1.37-.07,2.14A.84.84,0,0,0,728.63,117.65Z"/><path class="cls-7" d="M701,122.82c.57,0,.56-.6.65-1a47.64,47.64,0,0,0,.69-5.46c.29-2.28.41-4.58.69-6.86.4-3.33.78-6.67,1.07-10,.09-1,.06-2.06.22-3.07.43-2.67.27-5.37.6-8v-.86c0-.4,0-.82-.57-.8s-.46.4-.5.76c-.13,1.09-.18,2.19-.26,3.28-.15,1.83-.4,3.65-.59,5.48-.24,2.18-.44,4.36-.69,6.53-.24,2-.54,4-.81,6s-.53,3.85-.76,5.77-.66,3.55-.92,5.33A3.21,3.21,0,0,0,700,122C700.21,122.38,700.47,122.84,701,122.82Z"/><path class="cls-7" d="M734.81,96.15c.52-3,1.05-6.06,1.53-9.1.44-2.72.92-5.43,1.13-8.19.17-2.32.55-4.63.79-7a15.15,15.15,0,0,0,0-2.13c0-.45-.34-.58-.75-.58s-.5.28-.51.64c-.12,2.69-.59,5.34-.91,8-.41,3.44-.77,6.89-1,10.34-.08,1-.14,1.91-.24,2.86a25.83,25.83,0,0,0-.21,5.69A4.71,4.71,0,0,0,734.81,96.15Z"/><path class="cls-7" d="M694,116.89c0,.41-.11,1,.5,1s.53-.56.7-.91a1.2,1.2,0,0,0,.07-.42c.12-2.15.22-4.31.42-6.46s.2-4.46.47-6.66c.41-3.33.66-6.68,1.22-10a15.29,15.29,0,0,1,.22-2c.07-.21.08-.55-.25-.6s-.33.29-.38.52a15.85,15.85,0,0,0-.4,1.65c-.21,1.56-.3,3.13-.56,4.69-.38,2.37-.63,4.76-.95,7.14q-.32,2.36-.48,4.74c-.15,2.15-.42,4.29-.64,6.43h0C694,116.32,694,116.6,694,116.89Z"/><path class="cls-7" d="M671.32,124.75a39.21,39.21,0,0,0,.39-5.93c.11-1.48.23-3,.32-4.46a4.34,4.34,0,0,1,.37-2.06c.25-.43.41-1.12,0-1.23-.63-.19-.72.57-.81,1a60.65,60.65,0,0,0-.92,7.36c-.13,1.7-.21,3.39-.41,5.08a7.08,7.08,0,0,0,.08,2.45A4.06,4.06,0,0,0,671.32,124.75Z"/><path class="cls-7" d="M688.88,110.54c.39-2.34.32-4.72.6-7.07.34-2.83.24-5.71,1.07-8.48.07-.25.14-.63-.25-.71s-.36.28-.43.5a14.44,14.44,0,0,0-.45,2.6c-.26,2-.48,4.07-.77,6.09-.23,1.61-.31,3.23-.56,4.84a5.32,5.32,0,0,0,.19,3.1C688.77,111.24,688.82,110.91,688.88,110.54Z"/><path class="cls-7" d="M673,125.09c.56,0,.5-.7.55-1.11.23-1.89.43-3.79.56-5.69.17-2.33.39-4.65.76-7,0-.25.19-.53-.18-.6s-.4.25-.48.47a3,3,0,0,0-.09.52,61.36,61.36,0,0,0-1,6.59c-.25,1.82-.46,3.65-.68,5.45C672.4,124.33,672.32,125,673,125.09Z"/><path class="cls-5" d="M670.53,290.74c1.59-1.27,3.42-2,5.08-3.2-1.59-.06-3,.62-4.42.44a.42.42,0,0,0-.48.45C670.83,289.18,670.37,289.87,670.53,290.74Z"/><path class="cls-6" d="M754.76,285.08c.17-.1.25-.26.15-.42a.07.07,0,0,0-.1,0,.1.1,0,0,0,0,0,.25.25,0,0,0,0,.07C754.73,284.85,754.75,285,754.76,285.08Z"/><path class="cls-9" d="M789.48,349.36a2.73,2.73,0,0,0,2.13.39,11.75,11.75,0,0,0,6.54-3.92,16.9,16.9,0,0,0,4.79-11.94c0-5.66-4.51-8.44-9.53-7.65a13.49,13.49,0,0,0-8.32,4.84,12.54,12.54,0,0,0-3.39,7.63,9.17,9.17,0,0,0,2.22,6.33C785.43,346.88,787.53,348.05,789.48,349.36Zm-4.59-7.29c-.41,0-.85-.77-.82-1.39,0-.38.32-.35.54-.31a1.18,1.18,0,0,1,1.06.67C785,341.15,785.75,342.09,784.89,342.07Zm3.75,2.9c-1.57.75-1.59.76-2.39-.11a3.23,3.23,0,0,1-.52-.65c-.51-.9-.17-1.49.86-1.5h.51c0,.85-.38,1.61.18,2.53.24-.57.16-1,.37-1.43s-.16-.73.21-.84a4.08,4.08,0,0,1,1.26,0c.24,0,.26.18.27.37C789.39,344,789.39,344.62,788.64,345Zm-1-4.31c-.46,1.66-.46,1.66-1.81,1.57C786.25,340.33,785.9,340.51,787.63,340.66Zm-1.36-.55c.13-.62.27-1.21.42-1.9.42.38.94.11,1.49.35-.55.41,0,1.17-.57,1.5A2.34,2.34,0,0,1,786.27,340.11Zm3.5,1.1c-.12.42.19,1.3-.64,1.24-.38,0-1.18.18-1.21-.57s.24-1.09,1.09-1.09C789.26,340.91,789.94,340.53,789.77,341.21Zm-.85-2.69c.34,0,1.26-.28,1.29.56a2,2,0,0,1-.1.88.62.62,0,0,1-.22.26,1.41,1.41,0,0,1-.76.14,4.24,4.24,0,0,1-.62,0c-.17,0-.27-.18-.16-.53S788.23,338.5,788.92,338.52Zm-.07-1.45a1.5,1.5,0,0,0,.1-.62c-.06-.47.14-.65.59-.58s1-.22,1.11.31a2.75,2.75,0,0,1-.28,1.72c-.08.24-.51.07-.76.11C788.63,338,788.6,338,788.85,337.07Zm2.33,7.15a4.36,4.36,0,0,0-.59.17c-.23,0-.47,0-.69.06-.14-.27.1-.41.13-.61a.77.77,0,0,1,1.26-.56.56.56,0,0,1,.24.53C791.52,344.05,791.47,344.2,791.18,344.22Zm.76-2.31c0,1.12-.79.6-1.3.58-.76,0-.31-.63-.38-1s.19-.52.52-.52a3.21,3.21,0,0,1,1.34.1C792.17,341.41,791.93,341.62,791.94,341.91Zm-.32-1.36a3,3,0,0,0-1.21-.18c.12-.38.26-.58.24-.77-.07-.72.08-1.07.89-.75.32.12.84-.16,1,.15s-.19.85-.21,1.32S791.87,340.61,791.62,340.55Zm.08-6.55c.43-.29.94.21,1.43.15.66-.08.58.35.52.72s-.17,1-.83.72a7.16,7.16,0,0,0-1.53-.19C791.72,335,791.26,334.29,791.7,334Zm.61,2.09c.23.19.85-.37.92.39.08,1-.41,1.72-1.11,1.74-.21,0-.42,0-.63,0-.49,0-.78-.08-.52-.65a1.66,1.66,0,0,0,.12-.5C791.21,336.09,791.2,336.09,792.31,336.09Zm2,6.07c-.09.57-.41,1-1.11.62a3.09,3.09,0,0,0-.8-.13.88.88,0,0,0,.23-.68c.1-.74.36-.86,1.28-.76C794.63,341.29,794.32,341.86,794.27,342.16Zm.21-1.83a1,1,0,0,1-.75.25h-.4l-.12,0a.26.26,0,0,1-.17-.14.68.68,0,0,1,0-.37c.06-.63.22-1.09,1-1,.3.05.76-.21.74.43A1.23,1.23,0,0,1,794.48,340.33Zm-.07-1.88c-1,0-1,0-.78-1,.08-.45.09-1,.37-1.24s.81.21,1.34.17c-.32.5-.13,1.06-.34,1.56C794.86,338.25,794.83,338.44,794.41,338.45Zm.69-4.28c.31,0,.82-.17.68.44s0,1.3-.79,1.08c-.5-.08-.93.14-.91-.48S794.37,334.14,795.1,334.17Zm-.59-1.39c.17-1.08.38-1.28,1.32-1.19.34,0,.63.07.58.54-.12,1-.46,1.45-1.11,1.39C794.8,333.6,794.4,333.52,794.51,332.78Zm1.54,7.89a.62.62,0,0,1-.78,0c-.19-.14-.06-.35,0-.56.29-1.11.28-1.11,2-1A5.19,5.19,0,0,1,796.05,340.67Zm1.25-1.94c-.55-.3-1.61.43-1.69-.71s.31-1.73,1.31-1.72c.43.18,1.22-.15,1.42.61C798.48,337.43,797.55,338.87,797.3,338.73Zm-.38-3.06c-.39-.06-.76,0-.71-.59s.31-.74.82-.7a6.3,6.3,0,0,1,1.68.08C798.52,336,798.52,336,796.92,335.67Zm.64-3.85a1.26,1.26,0,0,1,1,1.56c-.36.8-1.24.18-2,.4C796.86,333,796.28,331.86,797.56,331.82Zm-.95-.88a2.05,2.05,0,0,1-1.88-.44c-.12-.11-.15-.06-.2,0-.66.71-1.4,0-2.09.19A4.1,4.1,0,0,1,796.61,330.94ZM792,332a.62.62,0,0,1,.77-.63,5.36,5.36,0,0,0,1.06,0c.46,0,.57.24.46.59a2.94,2.94,0,0,0-.2,1c0,.39-.27.53-.64.53h-1.68A10.82,10.82,0,0,1,792,332Zm-2.23.3c.19-.4-.1-1.07.64-1.11.43,0,.92-.2,1.3.18a4.77,4.77,0,0,1-.44,2c-.28.26-.52-.2-.69-.06C789.59,333.42,789.38,333.13,789.76,332.3Zm0,1.64c.41,0,.83,0,1.35,0a8,8,0,0,1-.12,1c-.11.43-1.55.74-1.8.38s.12-.65.13-1S789.5,333.93,789.81,333.94Zm-1.58-1.39c.34-.23.65-.51,1-.82.28.59-.12.93-.12,1.35s-.45.19-.69.22-.45.12-.53-.16S788,332.71,788.23,332.55ZM789,334c-.41,1.44-.41,1.44-1.59,1.37C787.66,333.85,787.66,333.85,789,334Zm-.81,1.83c.36.05.43.23.37.49s-.19.81-.24,1.22-.47.15-.66.22c-.68.06-.87,0-.67-.8S787.22,335.73,788.15,335.86Zm-1-2.23c-.29,1.84-.29,1.84-1.54,1.77A5.17,5.17,0,0,1,787.13,333.63Zm-2.26,2.74c.34-.78,1-.43,1.55-.49a.11.11,0,0,1,.09.06c.22.53-.2,1-.25,1.46s-.4.5-.7.37a6.39,6.39,0,0,0-1.23-.25A5.51,5.51,0,0,1,784.87,336.37Zm-.91,2.42c0-.41.17-.81.81-.59a4.56,4.56,0,0,0,1.24,0,6,6,0,0,1-.06.91c-.26,1.16-.33,1.18-1.52.82C783.76,339.75,783.92,339.22,784,338.79Z"/><path class="cls-9" d="M702,365.14a4.77,4.77,0,0,0,4.45,1.38,17,17,0,0,0,8.67-5.85c3.7-4.3,5.17-9.49,5.52-15-.05-2.73-1-3.87-3.65-4.41a7.63,7.63,0,0,0-3.59.36,12,12,0,0,0-6.34,4.6c-2.59,3.31-4.7,6.85-5.28,11.15a7.1,7.1,0,0,1-1.13,3.12,2.66,2.66,0,0,0,.26,3.26A7.72,7.72,0,0,0,702,365.14ZM704.5,361c-.14-.56.89-2,1.45-2,.25,0,.54,0,.4.54a19.59,19.59,0,0,0-.85,1.9C705.42,361.61,704.57,361.23,704.5,361Zm4.59-5.89c.15-1.25.51-1.68,1.59-1.82C710.18,353.94,710.22,355,709.09,355.07Zm.24.56c-.41.81-.47,1.89-1.52,2.22C708.19,357,708.12,355.85,709.33,355.63Zm3.61-3a2.24,2.24,0,0,1-2.35,2A2.29,2.29,0,0,1,712.94,352.61Zm-1.23-.41c.59-1,.74-2.34,2.38-2.16C713.11,352.23,713.76,351.83,711.71,352.2Zm1.52-2.74c.32-.62.31-1.43,1.21-1.59.43-.07.6.05.48.5C714.7,349.18,714.27,349.47,713.23,349.46Zm-1.91.66c.33-.92.59-1.84,2-1.8C712.79,349.15,712.63,350.2,711.32,350.12Zm.75.34c-.49.88-.51,2.17-2,2.29-.06-.63.49-1,.6-1.58C710.86,350.46,711.6,350.72,712.07,350.46Zm-4.16,2.92c.61-1,.69-2.31,2.33-2.31C709.07,353.39,709.55,352.93,707.91,353.38Zm1.05.24c-.29,1.17-.75,2-2,2C707.14,354.42,707.42,354.11,709,353.62Zm-1.1,2.38c-.53,1.08-.53,2.54-2.2,2.48C706,356.75,706.42,356.22,707.86,356Zm-2.78.14c.41-.84.55-1.79,1.81-1.86C706.47,355.13,706.39,356.09,705.08,356.14Zm.61.38c-.6,2.06-.65,2.13-1.79,2.37C704.42,357.16,704.71,356.78,705.69,356.52Zm.11,5a20.28,20.28,0,0,0,1.3-2.54c.13-.42.56-.5,1-.32C707.46,359.67,707.66,361.35,705.8,361.48Zm2.07-.92c.34-1.57.83-2.66,2.52-2.56C710.07,359.25,708.8,359.56,707.87,360.56Zm1.32-3.14c.46-1.27.88-2.49,2.5-2.42C711,357.11,710.74,357.42,709.19,357.42Zm2.39-.48c.55-.89.48-2.28,2.16-2.51A6.08,6.08,0,0,1,711.58,356.94Zm1.39-3c.6-1.64.6-1.64,1.76-1.54A1.69,1.69,0,0,1,713,354Zm1.73-2.32c-.38.14-.72.09-.57-.38a9.29,9.29,0,0,1,.74-1.48c.09-.17.27-.23.55-.2.11,0,.35-.08.37.27A2.73,2.73,0,0,1,714.7,351.63Zm.5-2.56a1.53,1.53,0,0,1,1-1.55C716,348.11,716.34,349,715.2,349.07Zm.6-3.89c.6.24,0,.58,0,.86-.11.75-.62,1.08-1.45,1.07.18-.49.36-.94.52-1.39S715.33,345,715.8,345.18Zm-1,0c-.66.88-.57,2.3-2.23,2.43.34-.67.61-1.19.87-1.72,0,0,0-.12-.08-.31a3.13,3.13,0,0,0-1,1.39,1.8,1.8,0,0,1-1.61,1.25A3.65,3.65,0,0,1,714.8,345.22ZM711.25,349c-.31,1-.73,1.84-2,1.78C709.92,350.11,709.8,348.68,711.25,349Zm-.79-1.5a0,0,0,0,1,0,0h0c0-.08,0-.14.06-.18s.08,0,.08,0,0,.13-.14.14,0,0,0,0l0,0a1.71,1.71,0,0,1-1.71,1.47A3.89,3.89,0,0,1,710.46,347.45Zm-2.81,3.3a1.66,1.66,0,0,1,1.78-1.26c-.36.68-.56,1.43-1.38,1.72-.17.06-.36.12-.49,0S707.61,350.9,707.65,350.75Zm.58,1c-.62.87-.6,2.1-1.94,2.16C706.49,352.34,707,351.76,708.23,351.76Zm-1.93.44c-.36.79-.29,1.85-1.48,2.32A8.62,8.62,0,0,1,706.3,352.2ZM704.12,356c.26-.39.14-1.18,1.08-1-.24.47-.43.87-.64,1.25a.31.31,0,0,1-.35.17C704,356.3,704,356.09,704.12,356Zm-.29,1.28a4.27,4.27,0,0,1,.51-.44l-.82,1.84a2.21,2.21,0,0,1,0-.94A1.1,1.1,0,0,1,703.83,357.24Zm-.43,2.69c.13-.79.79-.44,1.28-.62a4.9,4.9,0,0,1-.58,1.45C703.9,360.43,703.3,360.5,703.4,359.93Z"/><path class="cls-9" d="M747.48,361c.14-1.62.37-3.24.55-4.86,0-2.44.3-4.88.33-7.33,0-1.41.14-2.83.19-4.25a50.76,50.76,0,0,0-.46-8.8,12.15,12.15,0,0,1-.28-2.25c-.4-1.64-.79-3.27-1.2-4.91a26.85,26.85,0,0,0-1.25-4c-.14-.33-.3-.53-.69-.49s-.68.2-.73.62a3.8,3.8,0,0,0-.06,1.06,109,109,0,0,1,1.55,10.81,47.51,47.51,0,0,1,0,7.73c-.55,6-1,12.12-2,18.12a11.21,11.21,0,0,0,.4,5.11c.16.54.35.75.87.31a4.69,4.69,0,0,0,1.77-2.33A27.8,27.8,0,0,0,747.48,361Z"/><path class="cls-9" d="M751.92,322.26c.43,3.8,1,7.57,1.06,11.4a65.71,65.71,0,0,1-.24,8.06c-.38,3.78-.81,7.57-1.19,11.36a48.12,48.12,0,0,1-1.69,10,11.15,11.15,0,0,0-.42,2,2.27,2.27,0,0,0,1.51,2.07c.68.13,1.06-.2,1.44-1.36.28-.83.49-1.67.71-2.52a40,40,0,0,0,1-5.85c.2-2,.43-3.95.45-5.95,0-1.27.28-2.53.24-3.82a7.34,7.34,0,0,1,.32-2.62l.07-.61a2.4,2.4,0,0,1,.14-1.4.4.4,0,0,1,0-.42,2.1,2.1,0,0,1,0-1.72,61.91,61.91,0,0,0-.81-12.9,3.43,3.43,0,0,1,0-.64c-.57-2.45-.82-5-1.49-7.4a15.4,15.4,0,0,0-1.21-3.37c-.14-.26-.29-.41-.57-.37s-.32.33-.33.59a3.38,3.38,0,0,0,.15.82C751.38,319.16,751.75,320.7,751.92,322.26Z"/><path class="cls-9" d="M759.57,346.77c-.32,1.73-.64,3.47-1.06,5.18a81.51,81.51,0,0,1-2.61,8.76c-.51,1.4.21,2.07.94,2.83s1.24.6,1.7-.3a2.64,2.64,0,0,0,.2-.6c.25-1,.54-2,.81-3.05.67-2.47,1.28-5,1.85-7.47a66,66,0,0,0,1.47-10.19c.1-1.29.06-2.6.08-3.91a64.55,64.55,0,0,0-1.08-9.6,34.56,34.56,0,0,0-1.09-4.49c-.13-.38-.31-.64-.77-.52a.69.69,0,0,0-.58.76,20.54,20.54,0,0,0,.22,2.09c.31,3,.7,5.94.76,8.94,0,2.07,0,4.14-.13,6.2A49,49,0,0,1,759.57,346.77Z"/><path class="cls-6" d="M738.49,351.18a39.86,39.86,0,0,1-.5,7.4c-.25,1.2-.61,2.38-.79,3.6a8.14,8.14,0,0,0,2.36-.19,1.12,1.12,0,0,0,1-.79,37.55,37.55,0,0,0,2.84-12.12,88.74,88.74,0,0,0,.21-8.93c0-.3.1-.62-.1-.91a1.32,1.32,0,0,0-.72.65c-1.22,1.78-2.42,3.57-3.65,5.35a2.59,2.59,0,0,1-.53.76.74.74,0,0,1-.31.14h0C738.2,347.82,738.52,349.49,738.49,351.18Z"/><path class="cls-9" d="M769.2,341.83a19.48,19.48,0,0,0-.68-4.93c-.14-.46-.33-.89-.9-.9a1.27,1.27,0,0,0-1.25.67,2.91,2.91,0,0,0-.11,1.36,18.76,18.76,0,0,1,0,3.18c-.41,2.7-.5,5.44-1.16,8.11-.46,1.84-.87,3.7-1.38,5.53a12.94,12.94,0,0,0-.86,3.37,7.38,7.38,0,0,0,.62,2.85c.2.52.5.58,1,.4a3.2,3.2,0,0,0,2-2.28c.3-1,.53-2,.81-2.95a41.39,41.39,0,0,0,1.14-5.14A45.7,45.7,0,0,0,769.2,341.83Z"/><path class="cls-9" d="M734.16,364.19c.11.66.36.76.93.42a5.2,5.2,0,0,0,2.11-2.43c.18-1.22.54-2.4.79-3.6a39.86,39.86,0,0,0,.5-7.4c0-1.69-.29-3.36-.19-5l-.11-.19a.34.34,0,0,1-.07-.18,27.49,27.49,0,0,0-.49-4.15,18.66,18.66,0,0,0-1.08-4.48c-.22-.52-.58-.73-1.1-.49s-1.1.34-1,1.06a64.77,64.77,0,0,1,.79,6.63c.11,1.26.11,2.53.16,3.79s-.17,2.55-.1,3.8a25.06,25.06,0,0,1-.83,6.63A15,15,0,0,0,734.16,364.19Z"/><path class="cls-6" d="M748.55,344.58c0,1.42-.17,2.84-.19,4.25,0,2.45-.33,4.89-.33,7.33.4-.17.39-.58.48-.89.31-1,.55-2,.83-3.07a47,47,0,0,0,1.31-10.07c.12-2.31.06-4.62,0-6.93,0-1.36-.28-2.7-.2-4.19-1.15.74-1.72,1.82-2.65,2.52a12.15,12.15,0,0,0,.28,2.25A50.76,50.76,0,0,1,748.55,344.58Z"/><path class="cls-6" d="M728.78,362.62a18.26,18.26,0,0,0,2.86.21,1,1,0,0,0,1.09-.75,13.21,13.21,0,0,0,.79-4.15,8.63,8.63,0,0,0-.27-4.06,24.15,24.15,0,0,0-2.44,3.36c-.9,1.4-1.73,2.84-2.57,4.28C727.81,362.26,728,362.47,728.78,362.62Z"/><path class="cls-6" d="M755.34,340.89a6.6,6.6,0,0,1,0,1.72.4.4,0,0,0,0,.42,1.94,1.94,0,0,1-.14,1.4l-.07.61c.17,0,.35.48.43.1a39.23,39.23,0,0,0,.86-7.15c.11-3.78,0-7.56,0-11.34a3,3,0,0,0,0-.74c-.16-.69-.57-.78-1.14-.33a2,2,0,0,0-.77,1.77,3.43,3.43,0,0,0,0,.64A61.91,61.91,0,0,1,755.34,340.89Z"/><path class="cls-6" d="M761.4,352.12a3.26,3.26,0,0,0,2.11-2.6c.38-2.08.71-4.17,1.06-6.25s-.68-3.53-1.43-5.17c0-.05-.13-.05-.19-.08,0,1.31,0,2.62-.08,3.91A66,66,0,0,1,761.4,352.12Z"/><path d="M721.38,187a22.88,22.88,0,0,0-3.57-.66,9.58,9.58,0,0,0-4.45.23c-2.84.92-4.78,2.92-6.51,5.19A34.31,34.31,0,0,0,702,201.4a45.07,45.07,0,0,0-2.44,14.37,36.85,36.85,0,0,0,.23,5.94,15.29,15.29,0,0,0,.92,3.83c.72,1.59,1.15,1.64,2.3.39,0,0,.07,0,.11,0a2.22,2.22,0,0,0-.06-1.64,14,14,0,0,1-.48-3.22,39.07,39.07,0,0,1,.2-6.58c.85-6.45,2.61-12.58,6.38-18a9,9,0,0,1,6-3.88,5.14,5.14,0,0,1,2.77.5,14.61,14.61,0,0,1,5.39,4c4.46,5,6.59,11,8.12,17.35a55.4,55.4,0,0,1,1.09,7c.26,2.43.66,4.84,1,7.26.45,1.66.61,3.39,1.76,4.83.85,1.08,1.64,1.28,2.67.3a14.86,14.86,0,0,0,2.9-3.62,4.54,4.54,0,0,0,.78-3.18,21.24,21.24,0,0,1-.32-2.18c-.34-2.54-.67-5.08-1.16-7.58A67.26,67.26,0,0,0,737,205.66a39.4,39.4,0,0,0-8.81-14.12,16.44,16.44,0,0,1-2.33-2.16,4.35,4.35,0,0,1-.8-.48A13.16,13.16,0,0,0,721.38,187Z"/><path d="M779.58,197.85a24.31,24.31,0,0,0-6.63-4.07,13.23,13.23,0,0,0-8.59-.82c-2.18.68-3.54,2.32-4.72,4.14-2.48,3.8-3.77,8.08-4.89,12.4a91.71,91.71,0,0,0-2.18,12.11,57.84,57.84,0,0,0-.61,8.52,2.08,2.08,0,0,0,.15,1c.19.35.18,1,.77.73a.86.86,0,0,0,.44-1.1,6.67,6.67,0,0,1,.34-3.15,27.91,27.91,0,0,1,.7-5c.47-2.7,1-5.39,1.68-8,1.27-5.05,2.81-10,5.7-14.43a5.33,5.33,0,0,1,7.11-2.13,26.38,26.38,0,0,1,9,6.95c3.73,4.14,5.49,9.21,6.76,14.48a50.88,50.88,0,0,1,.72,5.1,42.9,42.9,0,0,0,1.23,7.89,1.58,1.58,0,0,1,0,.53h0a3.84,3.84,0,0,0,.23,1.09,17.6,17.6,0,0,0,1.67,2.79.89.89,0,0,0,.8.41,5,5,0,0,0,3.5-2.74,1.19,1.19,0,0,1,.53-.7,5.38,5.38,0,0,0,1.58-4.87c-.29-1-.55-2.08-.79-3.13a78.58,78.58,0,0,0-4.28-14.55,30.28,30.28,0,0,0-6-9.45c-1.08-1.08-2.14-2.17-3.21-3.26h0l-.23-.23A8.28,8.28,0,0,1,779.58,197.85Z"/><path class="cls-5" d="M786.58,232.48a42.9,42.9,0,0,1-1.23-7.89,50.88,50.88,0,0,0-.72-5.1c-1.27-5.27-3-10.34-6.76-14.48a26.38,26.38,0,0,0-9-6.95,5.33,5.33,0,0,0-7.11,2.13c-2.89,4.43-4.43,9.38-5.7,14.43-.67,2.65-1.21,5.34-1.68,8a27.91,27.91,0,0,0-.7,5,1.08,1.08,0,0,1,.16.39,11.58,11.58,0,0,0,.49,3.25c.15.46.3,1.08.87,1s.43-.73.41-1.17a28.72,28.72,0,0,1,1-8.3A54.7,54.7,0,0,1,760.85,211a37.7,37.7,0,0,1,4.69-7.43,4.62,4.62,0,0,1,3.57-1.83c2.43,0,4,1.48,5.53,3,1.79,1.75,2.63,4.09,3.59,6.32a55.36,55.36,0,0,1,2.28,6.76c.5,1.77,1.08,3.54.56,5.43a2.35,2.35,0,0,0,0,.95c.12,1,.2,2,.4,3,.24,1.21,0,2.5.72,3.62.43.69.89,1.36,1.3,2.07a1.33,1.33,0,0,0,1.66.58c.47-.15.94-.33,1.4-.5A1.58,1.58,0,0,0,786.58,232.48Z"/><path class="cls-5" d="M731.43,214.43c-1.53-6.34-3.66-12.39-8.12-17.35a14.61,14.61,0,0,0-5.39-4,5.14,5.14,0,0,0-2.77-.5,9,9,0,0,0-6,3.88c-3.77,5.41-5.53,11.54-6.38,18a39.07,39.07,0,0,0-.2,6.58,14,14,0,0,0,.48,3.22,2.22,2.22,0,0,1,.06,1.64c.48.17.72.79,1.39.65,1.07-.22,1.53-1,1.1-2.18a13.92,13.92,0,0,1-.72-4.92,34.28,34.28,0,0,1,.43-4.86,44.69,44.69,0,0,1,3-11.37c1.21-2.74,2.84-5,5.89-6a7.31,7.31,0,0,1,7.95,1.6,22.54,22.54,0,0,1,4.18,6.46,54.77,54.77,0,0,1,4,11.53c.72,3.1,1.08,6.28,1.93,9.35a4.48,4.48,0,0,0,1.22,2.58c-.34-2.42-.74-4.83-1-7.26A55.4,55.4,0,0,0,731.43,214.43Z"/><path d="M684.71,246.44a8.29,8.29,0,0,0-3.71,2,62.86,62.86,0,0,0-6.68,7.53,39.79,39.79,0,0,0-7.88,18.68,2.18,2.18,0,0,0,.2,1.74c.25.09.38.6.67.36a2.41,2.41,0,0,0,.72-1.29c-.86-.65-.16-1.39,0-1.9a37.74,37.74,0,0,1,7.22-15.1,77.79,77.79,0,0,1,7.44-8c.11-.13.22-.27.34-.4a14.56,14.56,0,0,0,2.13-3.19c.11-.2.2-.4,0-.58S684.86,246.4,684.71,246.44Z"/><path class="cls-5" d="M698.68,223c-.06,0-.14,0-.21-.06-1.6-.79-3.33-.58-5-.61a13.33,13.33,0,0,0-6.34,1.52,7.11,7.11,0,0,0-3.4,3.8,15.78,15.78,0,0,0-.93,4.23c0,.39-.11.76.19,1s.64-.11.92-.3c1.54-1.08,3.21-1.95,4.81-2.93a14.56,14.56,0,0,1,4.58-3.51,17.34,17.34,0,0,1,3.71-1,1.11,1.11,0,0,1,1.12.62c1,0,1.75-.49,1.78-1.16S699.28,223.37,698.68,223ZM697,224.25c-.24,0-.42.24-.69.2a10.49,10.49,0,0,0-5.17,1,3.32,3.32,0,0,1-.94.07c.86-2.07,4.47-3.69,6.92-2.27.22.13.55.3.46.64A.56.56,0,0,1,697,224.25Z"/><path class="cls-5" d="M675.21,258.48a37.74,37.74,0,0,0-7.22,15.1c-.12.51-.82,1.25,0,1.9a2.41,2.41,0,0,1-.72,1.29c-.29.24-.42-.27-.67-.36,0,.6,0,1.21,0,1.81a1,1,0,0,0,.94,1c.57.07.6-.44.69-.78.2-.82.32-1.66.49-2.49a27.56,27.56,0,0,1,1.79-6.1,44.36,44.36,0,0,1,3.33-5.43c2.15-3.22,4.26-6.46,7.14-9.08a5.15,5.15,0,0,0,1.62-4.79A77.79,77.79,0,0,0,675.21,258.48Z"/><path class="cls-5" d="M799.9,237.63a13.08,13.08,0,0,1,4.43,2.65,3.12,3.12,0,0,1,.91-.23,13.16,13.16,0,0,0,2.07-.45c.7-.23.81-.68.39-1.2a9.42,9.42,0,0,0-7.23-3.66l.94,1c.2.2.49.39.35.71s-.57.22-.83.19a19.71,19.71,0,0,1-3.58-.7,3.29,3.29,0,0,0-1.67-.09c-.35.06-.79,0-.84-.14a1,1,0,0,1,.35-.9c.13-.12.36-.06.42-.28-1.83,0-2.31,1-2.14,2.58A10.28,10.28,0,0,1,799.9,237.63Z"/><path class="cls-9" d="M793.6,237.72a14.39,14.39,0,0,1,2,.29,12.64,12.64,0,0,1,6.2,3.65,4.16,4.16,0,0,0,2.46,1.47c.36,0,.62.2.93-.12s.25-.64.16-1a4.19,4.19,0,0,0-1-1.68,13.08,13.08,0,0,0-4.43-2.65,10.28,10.28,0,0,0-6.43-.53C793.38,237.33,792.86,237.64,793.6,237.72Z"/><path class="cls-9" d="M697,225.12a17.34,17.34,0,0,0-3.71,1,14.56,14.56,0,0,0-4.58,3.51c-.09.76-1.06,1.2-.8,2.19a16.87,16.87,0,0,0,1.93-1.12c2.43-1.67,4.78-3.5,7.66-4.38a.88.88,0,0,0,.62-.55A1.11,1.11,0,0,0,697,225.12Z"/><path class="cls-9" d="M795.19,234.8a1,1,0,0,0-.35.9c0,.17.49.2.84.14a3.29,3.29,0,0,1,1.67.09,19.71,19.71,0,0,0,3.58.7c.26,0,.67.21.83-.19s-.15-.51-.35-.71l-.94-1a8,8,0,0,0-4.86-.22C795.55,234.74,795.32,234.68,795.19,234.8Z"/><path class="cls-10" d="M780.61,198.61h0"/><path class="cls-10" d="M780.6,198.6l-.23-.23"/><path d="M750.89,124.71c.47,0,.52-.53.63-.9a15.77,15.77,0,0,0,.39-3.68c.17-3.76.23-7.52.47-11.28.13-2.19,0-4.39.18-6.6.24-2.47,0-5,.23-7.46.21-1.9.09-3.82.18-5.74.12-2.7.29-5.38.51-8.07a11.73,11.73,0,0,1,.76-3.94,2.8,2.8,0,0,0,.23-1.62c0-.17-.21-.19-.35-.12a1.86,1.86,0,0,0-.92,1.34,53.49,53.49,0,0,0-1.44,10.07c-.21,2.15-.3,4.31-.4,6.46-.15,3.34-.36,6.66-.53,10.94-.22,1.42-.13,3.8-.31,6.17a48.13,48.13,0,0,0-.28,5.1,9.17,9.17,0,0,1-.06,1.17c-.19,2.11-.37,4.23-.58,6.34a1.93,1.93,0,0,0,.43,1.28A1,1,0,0,0,750.89,124.71Z"/><path d="M754.11,100.47a26.91,26.91,0,0,1-.28,3.81c-.28,2.78-.37,5.58-.61,8a28.17,28.17,0,0,1-.17,3.41c-.18,3.26.2,6.54-.2,9.8-.06.53.63,1.32,1.09,1.29.65,0,.75-.55.8-1.07a10.12,10.12,0,0,0,0-1.24c-.07-2.45-.44-4.87-.47-7.31,0-4.3-.07-8.6.2-12.9a18.79,18.79,0,0,1,.19-3.82c.08-.25.1-.69-.25-.71S754.09,100.18,754.11,100.47Z"/><path class="cls-11" d="M789.12,342.94a4.08,4.08,0,0,0-1.26,0c-.37.11-.07.59-.21.84s-.13.86-.37,1.43c-.56-.92-.15-1.68-.18-2.53h-.51c-1,0-1.37.6-.86,1.5a3.23,3.23,0,0,0,.52.65c.8.87.82.86,2.39.11.75-.35.75-1,.75-1.66C789.38,343.12,789.36,342.94,789.12,342.94Z"/><path class="cls-11" d="M796.92,336.3c-1,0-1.4.46-1.31,1.72s1.14.41,1.69.71c.25.14,1.18-1.3,1-1.82C798.14,336.15,797.35,336.48,796.92,336.3Z"/><path class="cls-5" d="M794.08,333a2.94,2.94,0,0,1,.2-1c.11-.35,0-.62-.46-.59a5.36,5.36,0,0,1-1.06,0,.62.62,0,0,0-.77.63,10.82,10.82,0,0,0-.23,1.52h1.68C793.81,333.52,794.08,333.38,794.08,333Z"/><path class="cls-5" d="M791,337.58c-.26.57,0,.68.52.65.21,0,.42,0,.63,0,.7,0,1.19-.78,1.11-1.74-.07-.76-.69-.2-.92-.39-1.11,0-1.1,0-1.22,1A1.66,1.66,0,0,1,791,337.58Z"/><path class="cls-11" d="M790.57,333.29c.17-.14.41.32.69.06a4.77,4.77,0,0,0,.44-2c-.38-.38-.87-.21-1.3-.18-.74,0-.45.71-.64,1.11C789.38,333.13,789.59,333.42,790.57,333.29Z"/><path class="cls-5" d="M790.37,337.9a2.75,2.75,0,0,0,.28-1.72c-.16-.53-.72-.24-1.11-.31s-.65.11-.59.58a1.5,1.5,0,0,1-.1.62c-.25.92-.22.94.76.94C789.86,338,790.29,338.14,790.37,337.9Z"/><path class="cls-11" d="M784.43,340c1.19.36,1.26.34,1.52-.82a6,6,0,0,0,.06-.91,4.56,4.56,0,0,1-1.24,0c-.64-.22-.77.18-.81.59S783.76,339.75,784.43,340Z"/><path class="cls-5" d="M797,334.38c-.51,0-.78.12-.82.7s.32.53.71.59c1.6.29,1.6.3,1.79-1.21A6.3,6.3,0,0,0,797,334.38Z"/><path class="cls-5" d="M794,336.2c-.28.21-.29.79-.37,1.24-.19,1-.22,1,.78,1,.42,0,.45-.2.59-.52.21-.5,0-1.06.34-1.56C794.81,336.41,794.3,336,794,336.2Z"/><path class="cls-11" d="M798.52,333.38a1.26,1.26,0,0,0-1-1.56c-1.28,0-.7,1.15-1.07,2C797.28,333.56,798.16,334.18,798.52,333.38Z"/><path class="cls-11" d="M792.82,335.59c.66.26.77-.27.83-.72s.14-.8-.52-.72c-.49.06-1-.44-1.43-.15s0,.95-.41,1.4A7.16,7.16,0,0,1,792.82,335.59Z"/><path class="cls-11" d="M786.26,337.4c0-.5.47-.93.25-1.46a.11.11,0,0,0-.09-.06c-.55.06-1.21-.29-1.55.49a5.51,5.51,0,0,0-.54,1.15,6.39,6.39,0,0,1,1.23.25C785.86,337.9,786.22,337.82,786.26,337.4Z"/><path class="cls-5" d="M795.3,333.52c.65.06,1-.41,1.11-1.39.05-.47-.24-.51-.58-.54-.94-.09-1.15.11-1.32,1.19C794.4,333.52,794.8,333.6,795.3,333.52Z"/><path class="cls-11" d="M792.54,339c-.16-.31-.68,0-1-.15-.81-.32-1,0-.89.75,0,.19-.12.39-.24.77a3,3,0,0,1,1.21.18c.25.06.69.14.71-.23S792.76,339.4,792.54,339Z"/><path class="cls-5" d="M788.35,339.81c-.11.35,0,.48.16.53a4.24,4.24,0,0,0,.62,0,1.41,1.41,0,0,0,.76-.14.62.62,0,0,0,.22-.26,2,2,0,0,0,.1-.88c0-.84-1-.55-1.29-.56C788.23,338.5,788.49,339.35,788.35,339.81Z"/><path class="cls-5" d="M787.62,337.79c.19-.07.61.18.66-.22s.15-.81.24-1.22,0-.44-.37-.49c-.93-.13-1,.35-1.2,1.13S786.94,337.85,787.62,337.79Z"/><path class="cls-5" d="M789,340.79c-.85,0-1.13.22-1.09,1.09s.83.55,1.21.57c.83.06.52-.82.64-1.24C789.94,340.53,789.26,340.91,789,340.79Z"/><path class="cls-5" d="M789.24,335.34c.25.36,1.69.05,1.8-.38a8,8,0,0,0,.12-1c-.52,0-.94,0-1.35,0s-.43.1-.44.42S789,335,789.24,335.34Z"/><path class="cls-5" d="M790.78,341c-.33,0-.58.21-.52.52s-.38.94.38,1c.51,0,1.31.54,1.3-.58,0-.29.23-.5.18-.8A3.21,3.21,0,0,0,790.78,341Z"/><path class="cls-11" d="M793.87,341.21c-.92-.1-1.18,0-1.28.76a.88.88,0,0,1-.23.68,3.09,3.09,0,0,1,.8.13c.7.35,1,0,1.11-.62C794.32,341.86,794.63,341.29,793.87,341.21Z"/><path class="cls-11" d="M794.53,330.49c.05-.05.08-.1.2,0a2.05,2.05,0,0,0,1.88.44,4.1,4.1,0,0,0-4.17-.26C793.13,330.51,793.87,331.2,794.53,330.49Z"/><path class="cls-5" d="M787.61,340.06c.58-.33,0-1.09.57-1.5-.55-.24-1.07,0-1.49-.35-.15.69-.29,1.28-.42,1.9A2.34,2.34,0,0,0,787.61,340.06Z"/><path class="cls-5" d="M785.82,342.23c1.35.09,1.35.09,1.81-1.57C785.9,340.51,786.25,340.33,785.82,342.23Z"/><path class="cls-11" d="M795.26,340.14c0,.21-.18.42,0,.56a.62.62,0,0,0,.78,0,5.19,5.19,0,0,0,1.25-1.55C795.54,339,795.55,339,795.26,340.14Z"/><path class="cls-5" d="M794,339.08c-.76-.12-.92.34-1,1a.68.68,0,0,0,0,.37.26.26,0,0,0,.17.14l.12,0h.4a1,1,0,0,0,.75-.25,1.23,1.23,0,0,0,.25-.82C794.75,338.87,794.29,339.13,794,339.08Z"/><path class="cls-5" d="M794.08,335.21c0,.62.41.4.91.48.76.22.67-.58.79-1.08s-.37-.44-.68-.44C794.37,334.14,794.11,334.45,794.08,335.21Z"/><path class="cls-5" d="M789,334c-1.3-.18-1.3-.18-1.59,1.37C788.55,335.47,788.55,335.47,789,334Z"/><path class="cls-11" d="M784.61,340.37c-.22,0-.51-.07-.54.31,0,.62.41,1.39.82,1.39.86,0,.11-.92.78-1A1.18,1.18,0,0,0,784.61,340.37Z"/><path class="cls-11" d="M791.29,343.28a.77.77,0,0,0-1.26.56c0,.2-.27.34-.13.61.22,0,.46,0,.69-.06a4.36,4.36,0,0,1,.59-.17c.29,0,.34-.17.35-.41A.56.56,0,0,0,791.29,343.28Z"/><path class="cls-11" d="M787.13,333.63a5.17,5.17,0,0,0-1.54,1.77C786.84,335.47,786.84,335.47,787.13,333.63Z"/><path class="cls-11" d="M788.45,333.3c.24,0,.68.19.69-.22s.4-.76.12-1.35c-.38.31-.69.59-1,.82s-.4.31-.31.59S788.28,333.32,788.45,333.3Z"/><path class="cls-11" d="M712.41,347a3.13,3.13,0,0,1,1-1.39c0,.19.11.27.08.31-.26.53-.53,1.05-.87,1.72,1.66-.13,1.57-1.55,2.23-2.43a3.65,3.65,0,0,0-4,3A1.8,1.8,0,0,0,712.41,347Z"/><path class="cls-5" d="M709.19,357.42c1.55,0,1.85-.31,2.5-2.42C710.07,354.93,709.65,356.15,709.19,357.42Z"/><path class="cls-5" d="M705.66,358.48c1.67.06,1.67-1.4,2.2-2.48C706.42,356.22,706,356.75,705.66,358.48Z"/><path class="cls-5" d="M706,359c-.56,0-1.59,1.43-1.45,2,.07.27.92.65,1,.45a19.59,19.59,0,0,1,.85-1.9C706.49,358.93,706.2,359,706,359Z"/><path class="cls-5" d="M714.09,350c-1.64-.18-1.79,1.19-2.38,2.16C713.76,351.83,713.11,352.23,714.09,350Z"/><path class="cls-5" d="M712.94,352.61a2.29,2.29,0,0,0-2.35,2A2.24,2.24,0,0,0,712.94,352.61Z"/><path class="cls-11" d="M707.1,358.94a20.28,20.28,0,0,1-1.3,2.54c1.86-.13,1.66-1.81,2.28-2.86C707.66,358.44,707.23,358.52,707.1,358.94Z"/><path class="cls-11" d="M707.87,360.56c.93-1,2.2-1.31,2.52-2.56C708.7,357.9,708.21,359,707.87,360.56Z"/><path class="cls-5" d="M707.91,353.38c1.64-.45,1.16,0,2.33-2.31C708.6,351.07,708.52,352.41,707.91,353.38Z"/><path class="cls-5" d="M710.7,351.17c-.11.55-.66.95-.6,1.58,1.46-.12,1.48-1.41,2-2.29C711.6,350.72,710.86,350.46,710.7,351.17Z"/><path class="cls-11" d="M708.23,351.76c-1.28,0-1.74.58-1.94,2.16C707.63,353.86,707.61,352.63,708.23,351.76Z"/><path class="cls-5" d="M707,355.62c1.24,0,1.7-.83,2-2C707.42,354.11,707.14,354.42,707,355.62Z"/><path class="cls-11" d="M715.42,349.57c-.28,0-.46,0-.55.2a9.29,9.29,0,0,0-.74,1.48c-.15.47.19.52.57.38a2.73,2.73,0,0,0,1.09-1.79C715.77,349.49,715.53,349.58,715.42,349.57Z"/><path class="cls-5" d="M703.9,358.89c1.14-.24,1.19-.31,1.79-2.37C704.71,356.78,704.42,357.16,703.9,358.89Z"/><path class="cls-11" d="M715.77,346c0-.28.63-.62,0-.86s-.8.07-1,.54-.34.9-.52,1.39C715.15,347.12,715.66,346.79,715.77,346Z"/><path class="cls-11" d="M713,354a1.69,1.69,0,0,0,1.76-1.54C713.57,352.31,713.57,352.31,713,354Z"/><path class="cls-5" d="M708.05,351.21c.82-.29,1-1,1.38-1.72a1.66,1.66,0,0,0-1.78,1.26c0,.15-.27.27-.09.44S707.88,351.27,708.05,351.21Z"/><path class="cls-5" d="M714.92,348.37c.12-.45,0-.57-.48-.5-.9.16-.89,1-1.21,1.59C714.27,349.47,714.7,349.18,714.92,348.37Z"/><path class="cls-11" d="M711.32,350.12c1.31.08,1.47-1,2-1.8C711.91,348.28,711.65,349.2,711.32,350.12Z"/><path class="cls-11" d="M709.25,350.73c1.27.06,1.69-.79,2-1.78C709.8,348.68,709.92,350.11,709.25,350.73Z"/><path class="cls-11" d="M711.58,356.94a6.08,6.08,0,0,0,2.16-2.51C712.06,354.66,712.13,356.05,711.58,356.94Z"/><path class="cls-5" d="M707.81,357.85c1.05-.33,1.11-1.41,1.52-2.22C708.12,355.85,708.19,357,707.81,357.85Z"/><path class="cls-5" d="M705.08,356.14c1.31-.05,1.39-1,1.81-1.86C705.63,354.35,705.49,355.3,705.08,356.14Z"/><path class="cls-11" d="M710.68,353.25c-1.08.14-1.44.57-1.59,1.82C710.22,355,710.18,353.94,710.68,353.25Z"/><path class="cls-11" d="M706.3,352.2a8.62,8.62,0,0,0-1.48,2.32C706,354.05,705.94,353,706.3,352.2Z"/><path class="cls-11" d="M704.1,360.76a4.9,4.9,0,0,0,.58-1.45c-.49.18-1.15-.17-1.28.62C703.3,360.5,703.9,360.43,704.1,360.76Z"/><path class="cls-11" d="M710.46,347.45a3.89,3.89,0,0,0-1.71,1.47A1.71,1.71,0,0,0,710.46,347.45Z"/><path class="cls-11" d="M710.47,347.42a0,0,0,0,0,0,0l0,0Z"/><path class="cls-11" d="M715.2,349.07c1.14,0,.77-1,1-1.55A1.53,1.53,0,0,0,715.2,349.07Z"/><path class="cls-11" d="M704.21,356.38a.31.31,0,0,0,.35-.17c.21-.38.4-.78.64-1.25-.94-.18-.82.61-1.08,1C704,356.09,704,356.3,704.21,356.38Z"/><path class="cls-11" d="M703.52,358.64l.82-1.84a4.27,4.27,0,0,0-.51.44,1.1,1.1,0,0,0-.3.46A2.21,2.21,0,0,0,703.52,358.64Z"/><path class="cls-11" d="M710.62,347.27s-.06,0-.08,0-.1.1-.06.18S710.63,347.37,710.62,347.27Z"/><path class="cls-11" d="M710.48,347.41h0S710.49,347.42,710.48,347.41Z"/><path class="cls-5" d="M755.34,340.89a2.1,2.1,0,0,0,0,1.72A6.6,6.6,0,0,0,755.34,340.89Z"/><path class="cls-5" d="M755.34,343a2.4,2.4,0,0,0-.14,1.4A1.94,1.94,0,0,0,755.34,343Z"/><path class="cls-9" d="M697.15,223.24c-2.45-1.42-6.06.2-6.92,2.27a3.32,3.32,0,0,0,.94-.07,10.49,10.49,0,0,1,5.17-1c.27,0,.45-.18.69-.2a.56.56,0,0,0,.58-.37C697.7,223.54,697.37,223.37,697.15,223.24Z"/></g></g></g></svg>